<svg version="1.1" xmlns="http://www.w3.org/2000/svg" viewBox="0 0 1161.5805314725894 329.3059614858228" width="1161.5805314725894" height="329.3059614858228" class="excalidraw-svg"><!-- svg-source:excalidraw --><metadata></metadata><defs><style class="style-fonts">
      </style></defs><rect x="0" y="0" width="1161.5805314725894" height="329.3059614858228" fill="#ffffff"></rect><g stroke-linecap="round" transform="translate(10.451245866380532 10.414957921819479) rotate(0 570.3867899673627 151.5727880885667)"><path d="M32 0 C457.62 -0.44, 883.27 -0.17, 1108.77 0 M32 0 C321.1 4.13, 609.41 4.06, 1108.77 0 M1108.77 0 C1128.66 -0.33, 1140.02 12.35, 1140.77 32 M1108.77 0 C1132.31 -0.4, 1138.71 11.88, 1140.77 32 M1140.77 32 C1141.04 82.73, 1141.78 132.07, 1140.77 271.15 M1140.77 32 C1141.67 87.71, 1141.57 145.49, 1140.77 271.15 M1140.77 271.15 C1140.63 291.83, 1131.81 302.8, 1108.77 303.15 M1140.77 271.15 C1138.49 294.5, 1129.31 305.32, 1108.77 303.15 M1108.77 303.15 C691.54 299.67, 274.24 299.94, 32 303.15 M1108.77 303.15 C835.74 304.75, 562.89 304.27, 32 303.15 M32 303.15 C9.18 303.75, 0.22 290.62, 0 271.15 M32 303.15 C8.45 302.37, -1.65 293.74, 0 271.15 M0 271.15 C1.66 210, 3.02 149.99, 0 32 M0 271.15 C-0.49 180.4, -0.97 90.58, 0 32 M0 32 C-1.62 12.39, 11.12 -1.96, 32 0 M0 32 C-0.85 12.02, 11.06 -1.51, 32 0" stroke="#1e1e1e" stroke-width="2" fill="none"></path></g><g stroke-linecap="round"><g transform="translate(10.992969681695087 100.46437165914836) rotate(0 569.2166575399696 0.9129497928429942)"><path d="M-0.99 1.16 C188.63 1.32, 948.55 2.02, 1138.28 2.12 M0.69 0.72 C190.09 1.01, 947.41 -0.23, 1137.26 0.15" stroke="#1e1e1e" stroke-width="2" fill="none"></path></g></g><mask></mask><g stroke-linecap="round"><g transform="translate(12.269584798639357 224.64983030338223) rotate(0 569.0722600342118 -6.462528294907656)"><path d="M-0.41 -0.3 C188.96 -2.43, 947.22 -10.12, 1137.13 -12.1 M1.57 -1.5 C191.24 -4.03, 949.78 -11.69, 1139.31 -13.79" stroke="#1e1e1e" stroke-width="2" fill="none"></path></g></g><mask></mask><g stroke-linecap="round"><g transform="translate(583.6729604028367 11.077861352778797) rotate(0 0 0)"><path d="M0.22 -0.08 C0.28 -0.09, 0.11 -0.27, 0.05 -0.25 M-0.09 -0.43 C-0.05 -0.39, -0.15 -0.07, -0.2 0.08" stroke="#1e1e1e" stroke-width="2" fill="none"></path></g></g><mask></mask><g stroke-linecap="round"><g transform="translate(583.4668831314141 11.498831352368) rotate(0 0.6068611526703194 150.1878026762799)"><path d="M-0.94 -0.3 C-0.67 49.72, 1.89 251.12, 2.35 301.18 M0.76 -1.5 C0.92 48.71, 1.9 249.02, 2.01 299.48" stroke="#1e1e1e" stroke-width="2" fill="none"></path></g></g><mask></mask><g stroke-linecap="round"><g transform="translate(196.3062043195357 100.71128554224654) rotate(0 0.5374234607805874 59.04059528153664)"><path d="M0.66 -0.92 C1.14 18.83, 1.71 97.61, 1.72 117.63 M-0.46 1.21 C0.02 21.21, 1.08 99.56, 1.12 118.94" stroke="#1e1e1e" stroke-width="2" fill="none"></path></g></g><mask></mask><g stroke-linecap="round"><g transform="translate(102.93761361550347 228.170525077959) rotate(0 -0.47472512169153447 43.22464380076394)"><path d="M0.06 0.96 C0.11 15.41, 0.04 71.72, -0.02 86.12 M-1.37 0.42 C-1.37 15.09, -0.59 73.3, -0.48 87.49" stroke="#1e1e1e" stroke-width="2" fill="none"></path></g></g><mask></mask><g stroke-linecap="round"><g transform="translate(198.98437840645187 223.6069292098782) rotate(0 1.3995495783004515 44.359921317106796)"><path d="M0.19 0.12 C0.76 14.97, 2.44 73.77, 2.84 88.68 M-1.17 -0.86 C-0.7 14.23, 1.44 75.43, 1.91 90.2" stroke="#1e1e1e" stroke-width="2" fill="none"></path></g></g><mask></mask><g stroke-linecap="round"><g transform="translate(304.642035212301 220.56597991390785) rotate(0 0.34709263926674794 48.47795333888496)"><path d="M0.88 0.89 C1.29 17.1, 1.78 80.58, 1.7 96.6 M-0.11 0.31 C0.29 16.76, 1.35 81.62, 1.28 97.95" stroke="#1e1e1e" stroke-width="2" fill="none"></path></g></g><mask></mask><g stroke-linecap="round"><g transform="translate(408.2262071597788 219.8986881664558) rotate(0 2.27285471705369 46.5656060865781)"><path d="M0.99 0.16 C1.68 15.64, 3.65 77.81, 4.28 93.48 M0.05 -0.8 C0.55 14.25, 2.51 76.01, 3.19 91.54" stroke="#1e1e1e" stroke-width="2" fill="none"></path></g></g><mask></mask><g stroke-linecap="round"><g transform="translate(508.4782642182473 220.81230166177065) rotate(0 2.371421744271629 43.88072458692193)"><path d="M-0.86 -0.71 C-0.31 14.14, 3.54 73.75, 4.44 88.54 M0.88 1.53 C1.16 16.09, 2.87 72.17, 3.34 86.83" stroke="#1e1e1e" stroke-width="2" fill="none"></path></g></g><mask></mask><g stroke-linecap="round"><g transform="translate(403.08034398574114 99.95893741323866) rotate(0 2.727425660464462 59.47052446814291)"><path d="M0.13 0.84 C0.9 20.52, 4.3 98.69, 5.3 118.37 M-1.25 0.23 C-0.72 20.04, 3.11 99.6, 4.27 119.6" stroke="#1e1e1e" stroke-width="2" fill="none"></path></g></g><mask></mask><g stroke-linecap="round"><g transform="translate(875.4945519067888 103.61791470399729) rotate(0 0.9046702783280693 57.47308889421953)"><path d="M0.01 0.4 C0.23 19.42, 0.28 95.4, 0.69 114.46 M-1.44 -0.43 C-0.82 18.71, 2.24 96.34, 2.82 115.74" stroke="#1e1e1e" stroke-width="2" fill="none"></path></g></g><mask></mask><g stroke-linecap="round"><g transform="translate(639.9949909196009 218.55962088394298) rotate(0 2.4386236319147088 48.13980391660493)"><path d="M1.15 0.18 C2.1 16.14, 3.8 80, 4.59 96.19 M0.29 -0.78 C1.16 15.34, 2.6 81.62, 3.49 97.69" stroke="#1e1e1e" stroke-width="2" fill="none"></path></g></g><mask></mask><g stroke-linecap="round"><g transform="translate(774.3422961784855 219.70614130164054) rotate(0 1.2719170958757218 45.19738970779187)"><path d="M-0.57 0.65 C-0.08 16.06, 1.11 76.59, 1.8 91.52 M1.33 -0.06 C2.31 15.13, 3.79 74.74, 4.12 89.99" stroke="#1e1e1e" stroke-width="2" fill="none"></path></g></g><mask></mask><g stroke-linecap="round"><g transform="translate(879.5252598027038 215.02155648375364) rotate(0 1.632392620561859 49.83045520782309)"><path d="M-0.35 -0.92 C0.1 15.75, 3.46 82.75, 3.86 99.61 M1.66 1.21 C1.91 18.12, 2.78 84.96, 3.23 101.13" stroke="#1e1e1e" stroke-width="2" fill="none"></path></g></g><mask></mask><g stroke-linecap="round"><g transform="translate(957.8592806701174 213.2122159270974) rotate(0 4.771908943750077 47.55089307802939)"><path d="M-0.64 0.96 C0.7 16.81, 7.42 78.53, 9 94.02 M1.23 0.42 C2.28 16.47, 6.07 79.29, 7.76 94.99" stroke="#1e1e1e" stroke-width="2" fill="none"></path></g></g><mask></mask><g stroke-linecap="round"><g transform="translate(1057.5739781479267 214.99019134417878) rotate(0 2.546069995997982 50.07230534719258)"><path d="M-0.51 -0.29 C0.52 16.52, 4.37 82.79, 5.45 99.71 M1.43 -1.49 C2.39 15.59, 3.99 84.19, 4.69 101.01" stroke="#1e1e1e" stroke-width="2" fill="none"></path></g></g><mask></mask><g stroke-linecap="round"><g transform="translate(195.44185354188036 99.35881779564417) rotate(0 2.6087363950263978 108.1298334714943)"><path d="M-0.18 0 C0.67 35.92, 3.66 179.64, 4.4 215.76 M-1.74 -1.04 C-0.44 35.02, 5.28 181.08, 6.68 217.03" stroke="#e03131" stroke-width="4" fill="none"></path></g></g><mask></mask><g stroke-linecap="round"><g transform="translate(402.86987013005773 104.53154256070266) rotate(0 5.2376589083942235 102.91458051565783)"><path d="M-0.64 0.99 C1.01 35.02, 8.46 171.22, 10.18 205.31 M1.22 0.46 C2.67 35.16, 7.26 172.2, 9.08 206.57" stroke="#e03131" stroke-width="4" fill="none"></path></g></g><mask></mask><g stroke-linecap="round"><g transform="translate(305.4616283131237 222.86346260001082) rotate(0 0.06493414333570513 43.800107873798765)"><path d="M0.97 1.16 C1.3 15.66, 1.11 72.1, 1.1 86.47 M0.02 0.73 C0.35 15.38, 0.57 72.77, 0.67 87.41" stroke="#e03131" stroke-width="4" fill="none"></path></g></g><mask></mask><g stroke-linecap="round"><g transform="translate(507.65875728576816 218.8014534446423) rotate(0 2.2929769552737866 46.144636086988896)"><path d="M0.06 0.31 C0.84 15.65, 4.7 77.23, 5.44 92.6 M-1.37 -0.58 C-0.74 14.33, 4.1 74.89, 4.94 90.64" stroke="#e03131" stroke-width="4" fill="none"></path></g></g><mask></mask><g stroke-linecap="round"><g transform="translate(584.1834375965256 12.461730543566858) rotate(0 1.370484123093604 150.26841938940305)"><path d="M1.09 -0.18 C1.56 49.59, 2.64 249.36, 3.09 299.46 M0.2 -1.32 C0.52 48.49, 1.77 249.93, 2.33 300.43" stroke="#e03131" stroke-width="4" fill="none"></path></g></g><mask></mask><g stroke-linecap="round"><g transform="translate(102.1987082324872 221.08100069554328) rotate(0 0.90240253402078 45.96324848246181)"><path d="M0.4 -0.43 C0.37 14.81, 0.49 76.88, 0.76 92.39 M-0.84 -1.7 C-0.61 13.1, 2.56 75.11, 2.92 90.52" stroke="#e03131" stroke-width="4" fill="none"></path></g></g><mask></mask><g stroke-linecap="round"><g transform="translate(640.3354256046259 215.50526216204727) rotate(0 1.9436804518210522 51.72488408609587)"><path d="M-0.97 0.33 C-0.36 17.81, 2.8 86.68, 3.71 103.8 M0.72 -0.55 C1.16 16.65, 2.11 84.41, 2.66 101.86" stroke="#e03131" stroke-width="4" fill="none"></path></g></g><mask></mask><g stroke-linecap="round"><g transform="translate(775.6410604437591 215.7605271268968) rotate(0 -0.7143713968749807 49.34455106489821)"><path d="M1.18 -0.47 C1 15.86, -1.63 82.28, -1.9 98.67 M0.35 -1.76 C0.03 14.71, -2.92 83.44, -3.09 100.19" stroke="#e03131" stroke-width="4" fill="none"></path></g></g><mask></mask><g stroke-linecap="round"><g transform="translate(876.3544597384997 99.60513058167115) rotate(0 3.5402363243146624 108.9359846326955)"><path d="M-0.86 -1.08 C0.19 35.25, 5.16 181.64, 6.54 218.28 M0.89 0.97 C1.71 36.9, 4.31 180.38, 5.31 216.37" stroke="#e03131" stroke-width="4" fill="none"></path></g></g><mask></mask><g stroke-linecap="round"><g transform="translate(960.9316126241002 213.40034828397992) rotate(0 2.293040835395175 50.623143633453196)"><path d="M0.65 -0.14 C1.28 16.47, 3.18 83.4, 3.9 100.33 M-0.47 -1.26 C0.55 15.41, 5.43 84.03, 6.25 101.38" stroke="#e03131" stroke-width="4" fill="none"></path></g></g><mask></mask><g stroke-linecap="round"><g transform="translate(1058.295010595858 211.5999509443104) rotate(0 2.4340881433000163 52.67433432947894)"><path d="M0.75 0.62 C1.4 18.23, 3.34 87.26, 4.08 104.85 M-0.31 -0.09 C0.69 17.75, 5.56 88.73, 6.38 106.12" stroke="#e03131" stroke-width="4" fill="none"></path></g></g><mask></mask><g stroke-linecap="round"><g transform="translate(1146.0296301187418 16.68946771189988) rotate(0 1.574197830026776 146.33401077639863)"><path d="M0.84 -0.83 C1.15 48.13, 1.99 244.24, 2.41 293.21 M-0.17 1.36 C0.48 50, 4.25 242.52, 4.74 291.37" stroke="#e03131" stroke-width="4" fill="none"></path></g></g><mask></mask></svg>