<svg version="1.1" xmlns="http://www.w3.org/2000/svg" viewBox="0 0 567.8618299396993 202.52053151336884" width="567.8618299396993" height="202.52053151336884" class="excalidraw-svg"><!-- svg-source:excalidraw --><metadata></metadata><defs><style class="style-fonts">
      </style></defs><rect x="0" y="0" width="567.8618299396993" height="202.52053151336884" fill="#ffffff"></rect><g transform="translate(180.88350677490223 10) rotate(0 79.11649322509766 12.5)"><text x="79.11649322509766" y="17.900390625" font-family="Helvetica, Segoe UI Emoji" font-size="20px" fill="#1e1e1e" text-anchor="middle" style="white-space: pre;" direction="ltr" dominant-baseline="alphabetic">Git = 코드의 스냅샷</text></g><g transform="translate(10 38.5) rotate(0 250 10)"><text x="250" y="12.5302734375" font-family="Helvetica, Segoe UI Emoji" font-size="14px" fill="#868e96" text-anchor="middle" style="white-space: pre;" direction="ltr" dominant-baseline="alphabetic">코드를 변경할 때마다 그 시점의 상태를 저장해둡니다</text></g><g stroke-linecap="round" transform="translate(26.317356656321635 127.52053151336882) rotate(0 21 21)"><path d="M42 21 C42 22.22, 41.89 23.45, 41.68 24.65 C41.47 25.84, 41.15 27.04, 40.73 28.18 C40.32 29.32, 39.79 30.45, 39.19 31.5 C38.58 32.55, 37.87 33.57, 37.09 34.5 C36.31 35.43, 35.43 36.31, 34.5 37.09 C33.57 37.87, 32.55 38.58, 31.5 39.19 C30.45 39.79, 29.32 40.32, 28.18 40.73 C27.04 41.15, 25.84 41.47, 24.65 41.68 C23.45 41.89, 22.22 42, 21 42 C19.78 42, 18.55 41.89, 17.35 41.68 C16.16 41.47, 14.96 41.15, 13.82 40.73 C12.68 40.32, 11.55 39.79, 10.5 39.19 C9.45 38.58, 8.43 37.87, 7.5 37.09 C6.57 36.31, 5.69 35.43, 4.91 34.5 C4.13 33.57, 3.42 32.55, 2.81 31.5 C2.21 30.45, 1.68 29.32, 1.27 28.18 C0.85 27.04, 0.53 25.84, 0.32 24.65 C0.11 23.45, 0 22.22, 0 21 C0 19.78, 0.11 18.55, 0.32 17.35 C0.53 16.16, 0.85 14.96, 1.27 13.82 C1.68 12.68, 2.21 11.55, 2.81 10.5 C3.42 9.45, 4.13 8.43, 4.91 7.5 C5.69 6.57, 6.57 5.69, 7.5 4.91 C8.43 4.13, 9.45 3.42, 10.5 2.81 C11.55 2.21, 12.68 1.68, 13.82 1.27 C14.96 0.85, 16.16 0.53, 17.35 0.32 C18.55 0.11, 19.78 0, 21 0 C22.22 0, 23.45 0.11, 24.65 0.32 C25.84 0.53, 27.04 0.85, 28.18 1.27 C29.32 1.68, 30.45 2.21, 31.5 2.81 C32.55 3.42, 33.57 4.13, 34.5 4.91 C35.43 5.69, 36.31 6.57, 37.09 7.5 C37.87 8.43, 38.58 9.45, 39.19 10.5 C39.79 11.55, 40.32 12.68, 40.73 13.82 C41.15 14.96, 41.47 16.16, 41.68 17.35 C41.89 18.55, 41.95 20.39, 42 21 C42.05 21.61, 42.05 20.39, 42 21" stroke="none" stroke-width="0" fill="#d0ebff"></path><path d="M42 21 C42 22.22, 41.89 23.45, 41.68 24.65 C41.47 25.84, 41.15 27.04, 40.73 28.18 C40.32 29.32, 39.79 30.45, 39.19 31.5 C38.58 32.55, 37.87 33.57, 37.09 34.5 C36.31 35.43, 35.43 36.31, 34.5 37.09 C33.57 37.87, 32.55 38.58, 31.5 39.19 C30.45 39.79, 29.32 40.32, 28.18 40.73 C27.04 41.15, 25.84 41.47, 24.65 41.68 C23.45 41.89, 22.22 42, 21 42 C19.78 42, 18.55 41.89, 17.35 41.68 C16.16 41.47, 14.96 41.15, 13.82 40.73 C12.68 40.32, 11.55 39.79, 10.5 39.19 C9.45 38.58, 8.43 37.87, 7.5 37.09 C6.57 36.31, 5.69 35.43, 4.91 34.5 C4.13 33.57, 3.42 32.55, 2.81 31.5 C2.21 30.45, 1.68 29.32, 1.27 28.18 C0.85 27.04, 0.53 25.84, 0.32 24.65 C0.11 23.45, 0 22.22, 0 21 C0 19.78, 0.11 18.55, 0.32 17.35 C0.53 16.16, 0.85 14.96, 1.27 13.82 C1.68 12.68, 2.21 11.55, 2.81 10.5 C3.42 9.45, 4.13 8.43, 4.91 7.5 C5.69 6.57, 6.57 5.69, 7.5 4.91 C8.43 4.13, 9.45 3.42, 10.5 2.81 C11.55 2.21, 12.68 1.68, 13.82 1.27 C14.96 0.85, 16.16 0.53, 17.35 0.32 C18.55 0.11, 19.78 0, 21 0 C22.22 0, 23.45 0.11, 24.65 0.32 C25.84 0.53, 27.04 0.85, 28.18 1.27 C29.32 1.68, 30.45 2.21, 31.5 2.81 C32.55 3.42, 33.57 4.13, 34.5 4.91 C35.43 5.69, 36.31 6.57, 37.09 7.5 C37.87 8.43, 38.58 9.45, 39.19 10.5 C39.79 11.55, 40.32 12.68, 40.73 13.82 C41.15 14.96, 41.47 16.16, 41.68 17.35 C41.89 18.55, 41.95 20.39, 42 21 C42.05 21.61, 42.05 20.39, 42 21" stroke="#1971c2" stroke-width="2" fill="none"></path></g><g transform="translate(40.60312401702913 140.54628910845133) rotate(0 6.864990234375 8.125)"><text x="6.864990234375" y="11.63525390625" font-family="Helvetica, Segoe UI Emoji" font-size="13px" fill="#1971c2" text-anchor="middle" style="white-space: pre;" direction="ltr" dominant-baseline="alphabetic">v1</text></g><g stroke-linecap="round" transform="translate(146.26771161727254 127.52053151336882) rotate(0 21 21)"><path d="M42 21 C42 22.22, 41.89 23.45, 41.68 24.65 C41.47 25.84, 41.15 27.04, 40.73 28.18 C40.32 29.32, 39.79 30.45, 39.19 31.5 C38.58 32.55, 37.87 33.57, 37.09 34.5 C36.31 35.43, 35.43 36.31, 34.5 37.09 C33.57 37.87, 32.55 38.58, 31.5 39.19 C30.45 39.79, 29.32 40.32, 28.18 40.73 C27.04 41.15, 25.84 41.47, 24.65 41.68 C23.45 41.89, 22.22 42, 21 42 C19.78 42, 18.55 41.89, 17.35 41.68 C16.16 41.47, 14.96 41.15, 13.82 40.73 C12.68 40.32, 11.55 39.79, 10.5 39.19 C9.45 38.58, 8.43 37.87, 7.5 37.09 C6.57 36.31, 5.69 35.43, 4.91 34.5 C4.13 33.57, 3.42 32.55, 2.81 31.5 C2.21 30.45, 1.68 29.32, 1.27 28.18 C0.85 27.04, 0.53 25.84, 0.32 24.65 C0.11 23.45, 0 22.22, 0 21 C0 19.78, 0.11 18.55, 0.32 17.35 C0.53 16.16, 0.85 14.96, 1.27 13.82 C1.68 12.68, 2.21 11.55, 2.81 10.5 C3.42 9.45, 4.13 8.43, 4.91 7.5 C5.69 6.57, 6.57 5.69, 7.5 4.91 C8.43 4.13, 9.45 3.42, 10.5 2.81 C11.55 2.21, 12.68 1.68, 13.82 1.27 C14.96 0.85, 16.16 0.53, 17.35 0.32 C18.55 0.11, 19.78 0, 21 0 C22.22 0, 23.45 0.11, 24.65 0.32 C25.84 0.53, 27.04 0.85, 28.18 1.27 C29.32 1.68, 30.45 2.21, 31.5 2.81 C32.55 3.42, 33.57 4.13, 34.5 4.91 C35.43 5.69, 36.31 6.57, 37.09 7.5 C37.87 8.43, 38.58 9.45, 39.19 10.5 C39.79 11.55, 40.32 12.68, 40.73 13.82 C41.15 14.96, 41.47 16.16, 41.68 17.35 C41.89 18.55, 41.95 20.39, 42 21 C42.05 21.61, 42.05 20.39, 42 21" stroke="none" stroke-width="0" fill="#a5d8ff"></path><path d="M42 21 C42 22.22, 41.89 23.45, 41.68 24.65 C41.47 25.84, 41.15 27.04, 40.73 28.18 C40.32 29.32, 39.79 30.45, 39.19 31.5 C38.58 32.55, 37.87 33.57, 37.09 34.5 C36.31 35.43, 35.43 36.31, 34.5 37.09 C33.57 37.87, 32.55 38.58, 31.5 39.19 C30.45 39.79, 29.32 40.32, 28.18 40.73 C27.04 41.15, 25.84 41.47, 24.65 41.68 C23.45 41.89, 22.22 42, 21 42 C19.78 42, 18.55 41.89, 17.35 41.68 C16.16 41.47, 14.96 41.15, 13.82 40.73 C12.68 40.32, 11.55 39.79, 10.5 39.19 C9.45 38.58, 8.43 37.87, 7.5 37.09 C6.57 36.31, 5.69 35.43, 4.91 34.5 C4.13 33.57, 3.42 32.55, 2.81 31.5 C2.21 30.45, 1.68 29.32, 1.27 28.18 C0.85 27.04, 0.53 25.84, 0.32 24.65 C0.11 23.45, 0 22.22, 0 21 C0 19.78, 0.11 18.55, 0.32 17.35 C0.53 16.16, 0.85 14.96, 1.27 13.82 C1.68 12.68, 2.21 11.55, 2.81 10.5 C3.42 9.45, 4.13 8.43, 4.91 7.5 C5.69 6.57, 6.57 5.69, 7.5 4.91 C8.43 4.13, 9.45 3.42, 10.5 2.81 C11.55 2.21, 12.68 1.68, 13.82 1.27 C14.96 0.85, 16.16 0.53, 17.35 0.32 C18.55 0.11, 19.78 0, 21 0 C22.22 0, 23.45 0.11, 24.65 0.32 C25.84 0.53, 27.04 0.85, 28.18 1.27 C29.32 1.68, 30.45 2.21, 31.5 2.81 C32.55 3.42, 33.57 4.13, 34.5 4.91 C35.43 5.69, 36.31 6.57, 37.09 7.5 C37.87 8.43, 38.58 9.45, 39.19 10.5 C39.79 11.55, 40.32 12.68, 40.73 13.82 C41.15 14.96, 41.47 16.16, 41.68 17.35 C41.89 18.55, 41.95 20.39, 42 21 C42.05 21.61, 42.05 20.39, 42 21" stroke="#1971c2" stroke-width="2" fill="none"></path></g><g transform="translate(160.55347897798003 140.54628910845133) rotate(0 6.864990234375 8.125)"><text x="6.864990234375" y="11.63525390625" font-family="Helvetica, Segoe UI Emoji" font-size="13px" fill="#1971c2" text-anchor="middle" style="white-space: pre;" direction="ltr" dominant-baseline="alphabetic">v2</text></g><g stroke-linecap="round" transform="translate(266.31735665632175 127.52053151336882) rotate(0 21 21)"><path d="M42 21 C42 22.22, 41.89 23.45, 41.68 24.65 C41.47 25.84, 41.15 27.04, 40.73 28.18 C40.32 29.32, 39.79 30.45, 39.19 31.5 C38.58 32.55, 37.87 33.57, 37.09 34.5 C36.31 35.43, 35.43 36.31, 34.5 37.09 C33.57 37.87, 32.55 38.58, 31.5 39.19 C30.45 39.79, 29.32 40.32, 28.18 40.73 C27.04 41.15, 25.84 41.47, 24.65 41.68 C23.45 41.89, 22.22 42, 21 42 C19.78 42, 18.55 41.89, 17.35 41.68 C16.16 41.47, 14.96 41.15, 13.82 40.73 C12.68 40.32, 11.55 39.79, 10.5 39.19 C9.45 38.58, 8.43 37.87, 7.5 37.09 C6.57 36.31, 5.69 35.43, 4.91 34.5 C4.13 33.57, 3.42 32.55, 2.81 31.5 C2.21 30.45, 1.68 29.32, 1.27 28.18 C0.85 27.04, 0.53 25.84, 0.32 24.65 C0.11 23.45, 0 22.22, 0 21 C0 19.78, 0.11 18.55, 0.32 17.35 C0.53 16.16, 0.85 14.96, 1.27 13.82 C1.68 12.68, 2.21 11.55, 2.81 10.5 C3.42 9.45, 4.13 8.43, 4.91 7.5 C5.69 6.57, 6.57 5.69, 7.5 4.91 C8.43 4.13, 9.45 3.42, 10.5 2.81 C11.55 2.21, 12.68 1.68, 13.82 1.27 C14.96 0.85, 16.16 0.53, 17.35 0.32 C18.55 0.11, 19.78 0, 21 0 C22.22 0, 23.45 0.11, 24.65 0.32 C25.84 0.53, 27.04 0.85, 28.18 1.27 C29.32 1.68, 30.45 2.21, 31.5 2.81 C32.55 3.42, 33.57 4.13, 34.5 4.91 C35.43 5.69, 36.31 6.57, 37.09 7.5 C37.87 8.43, 38.58 9.45, 39.19 10.5 C39.79 11.55, 40.32 12.68, 40.73 13.82 C41.15 14.96, 41.47 16.16, 41.68 17.35 C41.89 18.55, 41.95 20.39, 42 21 C42.05 21.61, 42.05 20.39, 42 21" stroke="none" stroke-width="0" fill="#74c0fc"></path><path d="M42 21 C42 22.22, 41.89 23.45, 41.68 24.65 C41.47 25.84, 41.15 27.04, 40.73 28.18 C40.32 29.32, 39.79 30.45, 39.19 31.5 C38.58 32.55, 37.87 33.57, 37.09 34.5 C36.31 35.43, 35.43 36.31, 34.5 37.09 C33.57 37.87, 32.55 38.58, 31.5 39.19 C30.45 39.79, 29.32 40.32, 28.18 40.73 C27.04 41.15, 25.84 41.47, 24.65 41.68 C23.45 41.89, 22.22 42, 21 42 C19.78 42, 18.55 41.89, 17.35 41.68 C16.16 41.47, 14.96 41.15, 13.82 40.73 C12.68 40.32, 11.55 39.79, 10.5 39.19 C9.45 38.58, 8.43 37.87, 7.5 37.09 C6.57 36.31, 5.69 35.43, 4.91 34.5 C4.13 33.57, 3.42 32.55, 2.81 31.5 C2.21 30.45, 1.68 29.32, 1.27 28.18 C0.85 27.04, 0.53 25.84, 0.32 24.65 C0.11 23.45, 0 22.22, 0 21 C0 19.78, 0.11 18.55, 0.32 17.35 C0.53 16.16, 0.85 14.96, 1.27 13.82 C1.68 12.68, 2.21 11.55, 2.81 10.5 C3.42 9.45, 4.13 8.43, 4.91 7.5 C5.69 6.57, 6.57 5.69, 7.5 4.91 C8.43 4.13, 9.45 3.42, 10.5 2.81 C11.55 2.21, 12.68 1.68, 13.82 1.27 C14.96 0.85, 16.16 0.53, 17.35 0.32 C18.55 0.11, 19.78 0, 21 0 C22.22 0, 23.45 0.11, 24.65 0.32 C25.84 0.53, 27.04 0.85, 28.18 1.27 C29.32 1.68, 30.45 2.21, 31.5 2.81 C32.55 3.42, 33.57 4.13, 34.5 4.91 C35.43 5.69, 36.31 6.57, 37.09 7.5 C37.87 8.43, 38.58 9.45, 39.19 10.5 C39.79 11.55, 40.32 12.68, 40.73 13.82 C41.15 14.96, 41.47 16.16, 41.68 17.35 C41.89 18.55, 41.95 20.39, 42 21 C42.05 21.61, 42.05 20.39, 42 21" stroke="#1971c2" stroke-width="2" fill="none"></path></g><g transform="translate(280.60312401702924 140.54628910845133) rotate(0 6.864990234375 8.125)"><text x="6.864990234375" y="11.63525390625" font-family="Helvetica, Segoe UI Emoji" font-size="13px" fill="#1971c2" text-anchor="middle" style="white-space: pre;" direction="ltr" dominant-baseline="alphabetic">v3</text></g><g stroke-linecap="round" transform="translate(386.31735665632175 127.52053151336882) rotate(0 21 21)"><path d="M42 21 C42 22.22, 41.89 23.45, 41.68 24.65 C41.47 25.84, 41.15 27.04, 40.73 28.18 C40.32 29.32, 39.79 30.45, 39.19 31.5 C38.58 32.55, 37.87 33.57, 37.09 34.5 C36.31 35.43, 35.43 36.31, 34.5 37.09 C33.57 37.87, 32.55 38.58, 31.5 39.19 C30.45 39.79, 29.32 40.32, 28.18 40.73 C27.04 41.15, 25.84 41.47, 24.65 41.68 C23.45 41.89, 22.22 42, 21 42 C19.78 42, 18.55 41.89, 17.35 41.68 C16.16 41.47, 14.96 41.15, 13.82 40.73 C12.68 40.32, 11.55 39.79, 10.5 39.19 C9.45 38.58, 8.43 37.87, 7.5 37.09 C6.57 36.31, 5.69 35.43, 4.91 34.5 C4.13 33.57, 3.42 32.55, 2.81 31.5 C2.21 30.45, 1.68 29.32, 1.27 28.18 C0.85 27.04, 0.53 25.84, 0.32 24.65 C0.11 23.45, 0 22.22, 0 21 C0 19.78, 0.11 18.55, 0.32 17.35 C0.53 16.16, 0.85 14.96, 1.27 13.82 C1.68 12.68, 2.21 11.55, 2.81 10.5 C3.42 9.45, 4.13 8.43, 4.91 7.5 C5.69 6.57, 6.57 5.69, 7.5 4.91 C8.43 4.13, 9.45 3.42, 10.5 2.81 C11.55 2.21, 12.68 1.68, 13.82 1.27 C14.96 0.85, 16.16 0.53, 17.35 0.32 C18.55 0.11, 19.78 0, 21 0 C22.22 0, 23.45 0.11, 24.65 0.32 C25.84 0.53, 27.04 0.85, 28.18 1.27 C29.32 1.68, 30.45 2.21, 31.5 2.81 C32.55 3.42, 33.57 4.13, 34.5 4.91 C35.43 5.69, 36.31 6.57, 37.09 7.5 C37.87 8.43, 38.58 9.45, 39.19 10.5 C39.79 11.55, 40.32 12.68, 40.73 13.82 C41.15 14.96, 41.47 16.16, 41.68 17.35 C41.89 18.55, 41.95 20.39, 42 21 C42.05 21.61, 42.05 20.39, 42 21" stroke="none" stroke-width="0" fill="#4dabf7"></path><path d="M42 21 C42 22.22, 41.89 23.45, 41.68 24.65 C41.47 25.84, 41.15 27.04, 40.73 28.18 C40.32 29.32, 39.79 30.45, 39.19 31.5 C38.58 32.55, 37.87 33.57, 37.09 34.5 C36.31 35.43, 35.43 36.31, 34.5 37.09 C33.57 37.87, 32.55 38.58, 31.5 39.19 C30.45 39.79, 29.32 40.32, 28.18 40.73 C27.04 41.15, 25.84 41.47, 24.65 41.68 C23.45 41.89, 22.22 42, 21 42 C19.78 42, 18.55 41.89, 17.35 41.68 C16.16 41.47, 14.96 41.15, 13.82 40.73 C12.68 40.32, 11.55 39.79, 10.5 39.19 C9.45 38.58, 8.43 37.87, 7.5 37.09 C6.57 36.31, 5.69 35.43, 4.91 34.5 C4.13 33.57, 3.42 32.55, 2.81 31.5 C2.21 30.45, 1.68 29.32, 1.27 28.18 C0.85 27.04, 0.53 25.84, 0.32 24.65 C0.11 23.45, 0 22.22, 0 21 C0 19.78, 0.11 18.55, 0.32 17.35 C0.53 16.16, 0.85 14.96, 1.27 13.82 C1.68 12.68, 2.21 11.55, 2.81 10.5 C3.42 9.45, 4.13 8.43, 4.91 7.5 C5.69 6.57, 6.57 5.69, 7.5 4.91 C8.43 4.13, 9.45 3.42, 10.5 2.81 C11.55 2.21, 12.68 1.68, 13.82 1.27 C14.96 0.85, 16.16 0.53, 17.35 0.32 C18.55 0.11, 19.78 0, 21 0 C22.22 0, 23.45 0.11, 24.65 0.32 C25.84 0.53, 27.04 0.85, 28.18 1.27 C29.32 1.68, 30.45 2.21, 31.5 2.81 C32.55 3.42, 33.57 4.13, 34.5 4.91 C35.43 5.69, 36.31 6.57, 37.09 7.5 C37.87 8.43, 38.58 9.45, 39.19 10.5 C39.79 11.55, 40.32 12.68, 40.73 13.82 C41.15 14.96, 41.47 16.16, 41.68 17.35 C41.89 18.55, 41.95 20.39, 42 21 C42.05 21.61, 42.05 20.39, 42 21" stroke="#1971c2" stroke-width="2" fill="none"></path></g><g transform="translate(400.60312401702924 140.54628910845133) rotate(0 6.864990234375 8.125)"><text x="6.864990234375" y="11.63525390625" font-family="Helvetica, Segoe UI Emoji" font-size="13px" fill="#1971c2" text-anchor="middle" style="white-space: pre;" direction="ltr" dominant-baseline="alphabetic">v4</text></g><g stroke-linecap="round"><g transform="translate(70.31735665632164 148.52053151336878) rotate(0 36.97517747911223 -0.047211771299359384)"><path d="M0 0 C12.33 -0.02, 61.63 -0.08, 73.95 -0.09 M0 0 C12.33 -0.02, 61.63 -0.08, 73.95 -0.09" stroke="#74c0fc" stroke-width="2" fill="none"></path></g><g transform="translate(70.31735665632164 148.52053151336878) rotate(0 36.97517747911223 -0.047211771299359384)"><path d="M50.47 8.49 C55.72 6.57, 60.97 4.65, 73.95 -0.09 M50.47 8.49 C56.83 6.16, 63.2 3.83, 73.95 -0.09" stroke="#74c0fc" stroke-width="2" fill="none"></path></g><g transform="translate(70.31735665632164 148.52053151336878) rotate(0 36.97517747911223 -0.047211771299359384)"><path d="M50.45 -8.61 C55.7 -6.71, 60.96 -4.81, 73.95 -0.09 M50.45 -8.61 C56.82 -6.31, 63.19 -4, 73.95 -0.09" stroke="#74c0fc" stroke-width="2" fill="none"></path></g></g><mask></mask><g stroke-linecap="round"><g transform="translate(190.26771161727254 148.52053151336878) rotate(0 37.024822519524605 0)"><path d="M0 0 C12.34 0, 61.71 0, 74.05 0 M0 0 C12.34 0, 61.71 0, 74.05 0" stroke="#74c0fc" stroke-width="2" fill="none"></path></g><g transform="translate(190.26771161727254 148.52053151336878) rotate(0 37.024822519524605 0)"><path d="M50.56 8.55 C55.7 6.68, 60.85 4.81, 74.05 0 M50.56 8.55 C56.07 6.54, 61.59 4.53, 74.05 0" stroke="#74c0fc" stroke-width="2" fill="none"></path></g><g transform="translate(190.26771161727254 148.52053151336878) rotate(0 37.024822519524605 0)"><path d="M50.56 -8.55 C55.7 -6.68, 60.85 -4.81, 74.05 0 M50.56 -8.55 C56.07 -6.54, 61.59 -4.53, 74.05 0" stroke="#74c0fc" stroke-width="2" fill="none"></path></g></g><mask></mask><g stroke-linecap="round"><g transform="translate(310.31735665632175 148.52053151336878) rotate(0 37 0)"><path d="M0 0 C12.33 0, 61.67 0, 74 0 M0 0 C12.33 0, 61.67 0, 74 0" stroke="#74c0fc" stroke-width="2" fill="none"></path></g><g transform="translate(310.31735665632175 148.52053151336878) rotate(0 37 0)"><path d="M50.51 8.55 C55.39 6.77, 60.28 5, 74 0 M50.51 8.55 C57.03 6.18, 63.56 3.8, 74 0" stroke="#74c0fc" stroke-width="2" fill="none"></path></g><g transform="translate(310.31735665632175 148.52053151336878) rotate(0 37 0)"><path d="M50.51 -8.55 C55.39 -6.77, 60.28 -5, 74 0 M50.51 -8.55 C57.03 -6.18, 63.56 -3.8, 74 0" stroke="#74c0fc" stroke-width="2" fill="none"></path></g></g><mask></mask><g transform="translate(17.317356656321635 176.52053151336884) rotate(0 30 8)"><text x="30" y="9.84521484375" font-family="Helvetica, Segoe UI Emoji" font-size="11px" fill="#868e96" text-anchor="middle" style="white-space: pre;" direction="ltr" dominant-baseline="alphabetic">파일 수정</text></g><g transform="translate(137.31735665632175 176.52053151336884) rotate(0 30 8)"><text x="30" y="9.84521484375" font-family="Helvetica, Segoe UI Emoji" font-size="11px" fill="#868e96" text-anchor="middle" style="white-space: pre;" direction="ltr" dominant-baseline="alphabetic">기능 추가</text></g><g transform="translate(257.31735665632175 176.52053151336884) rotate(0 30 8)"><text x="30" y="9.84521484375" font-family="Helvetica, Segoe UI Emoji" font-size="11px" fill="#868e96" text-anchor="middle" style="white-space: pre;" direction="ltr" dominant-baseline="alphabetic">버그 수정</text></g><g transform="translate(377.31735665632175 176.52053151336884) rotate(0 30 8)"><text x="30" y="9.84521484375" font-family="Helvetica, Segoe UI Emoji" font-size="11px" fill="#868e96" text-anchor="middle" style="white-space: pre;" direction="ltr" dominant-baseline="alphabetic">스타일 변경</text></g><g transform="translate(382.6946921278112 92.60571140792455) rotate(0 24 9)"><text x="24" y="12.5302734375" font-family="Helvetica, Segoe UI Emoji" font-size="14px" fill="#e8590c" text-anchor="middle" style="white-space: pre;" direction="ltr" dominant-baseline="alphabetic">HEAD</text></g><g stroke-linecap="round"><g transform="translate(406.6946921278112 110.60571140792455) rotate(0 0 4)"><path d="M0 0 C0 1.33, 0 6.67, 0 8 M0 0 C0 1.33, 0 6.67, 0 8" stroke="#e8590c" stroke-width="2" fill="none"></path></g><g transform="translate(406.6946921278112 110.60571140792455) rotate(0 0 4)"><path d="M-1.37 4.24 C-1.08 5.03, -0.79 5.82, 0 8 M-1.37 4.24 C-0.91 5.51, -0.44 6.78, 0 8" stroke="#e8590c" stroke-width="2" fill="none"></path></g><g transform="translate(406.6946921278112 110.60571140792455) rotate(0 0 4)"><path d="M1.37 4.24 C1.08 5.03, 0.79 5.82, 0 8 M1.37 4.24 C0.91 5.51, 0.44 6.78, 0 8" stroke="#e8590c" stroke-width="2" fill="none"></path></g></g><mask></mask><g transform="translate(451.9292619559027 131.08861429842662) rotate(0 52.96628399189831 16.250000000000007)"><text x="0" y="11.63525390625" font-family="Helvetica, Segoe UI Emoji" font-size="13px" fill="#e8590c" text-anchor="start" style="white-space: pre;" direction="ltr" dominant-baseline="alphabetic">HEAD = 지금 내가</text><text x="0" y="27.88525390625" font-family="Helvetica, Segoe UI Emoji" font-size="13px" fill="#e8590c" text-anchor="start" style="white-space: pre;" direction="ltr" dominant-baseline="alphabetic">보고 있는 위치</text></g></svg>