<svg version="1.1" xmlns="http://www.w3.org/2000/svg" viewBox="0 0 1068.00390625 80.62890625" width="1068.00390625" height="80.62890625" class="excalidraw-svg"><!-- svg-source:excalidraw --><metadata></metadata><defs><style class="style-fonts">
      </style></defs><rect x="0" y="0" width="1068.00390625" height="80.62890625" fill="#ffffff"></rect><g stroke-linecap="round" transform="translate(10 10) rotate(0 524.001953125 30.314453125)"><path d="M15.16 0 C242.42 2.94, 467.86 3.29, 1032.85 0 M15.16 0 C390.15 -3.55, 765.93 -3.87, 1032.85 0 M1032.85 0 C1044.24 -1.98, 1049.71 5.53, 1048 15.16 M1032.85 0 C1042.81 -2.17, 1047.29 6.93, 1048 15.16 M1048 15.16 C1047.73 22.96, 1049.28 30.14, 1048 45.47 M1048 15.16 C1047.72 23.57, 1048.74 33.33, 1048 45.47 M1048 45.47 C1046.49 54.1, 1042.87 62.61, 1032.85 60.63 M1048 45.47 C1047.61 53.6, 1044.34 62.05, 1032.85 60.63 M1032.85 60.63 C676.55 64.28, 318.6 63.73, 15.16 60.63 M1032.85 60.63 C678.05 62.91, 323.98 62.95, 15.16 60.63 M15.16 60.63 C6.14 60.54, -0.37 53.98, 0 45.47 M15.16 60.63 C5.33 58.92, -0.94 57.14, 0 45.47 M0 45.47 C1.58 38.37, -1.33 32.38, 0 15.16 M0 45.47 C-0.05 37.98, 0.15 30.43, 0 15.16 M0 15.16 C1.44 4.07, 4.36 1.19, 15.16 0 M0 15.16 C1.39 6.15, 3.8 1.03, 15.16 0" stroke="#1e1e1e" stroke-width="2" fill="none"></path></g></svg>