<svg version="1.1" xmlns="http://www.w3.org/2000/svg" viewBox="0 0 795 526" width="795" height="526" class="excalidraw-svg"><!-- svg-source:excalidraw --><metadata></metadata><defs><style class="style-fonts">
      </style></defs><rect x="0" y="0" width="795" height="526" fill="#ffffff"></rect><g transform="translate(70 10) rotate(0 30 17.5)"><text x="30" y="25.060546875" font-family="Helvetica, Segoe UI Emoji" font-size="28px" fill="#1e1e1e" text-anchor="middle" style="white-space: pre;" direction="ltr" dominant-baseline="alphabetic">이전</text></g><g transform="translate(25 46) rotate(0 75 11)"><text x="75" y="13.42529296875" font-family="Helvetica, Segoe UI Emoji" font-size="15px" fill="#868e96" text-anchor="middle" style="white-space: pre;" direction="ltr" dominant-baseline="alphabetic">순차적으로, 혼자</text></g><g stroke-linecap="round" transform="translate(10 93) rotate(0 90 26)"><path d="M13 0 C63.24 0, 113.47 0, 167 0 C175.67 0, 180 4.33, 180 13 C180 21.38, 180 29.76, 180 39 C180 47.67, 175.67 52, 167 52 C107.49 52, 47.98 52, 13 52 C4.33 52, 0 47.67, 0 39 C0 29.15, 0 19.3, 0 13 C0 4.33, 4.33 0, 13 0" stroke="none" stroke-width="0" fill="#e9ecef"></path><path d="M13 0 C64.78 0, 116.57 0, 167 0 M13 0 C51.6 0, 90.2 0, 167 0 M167 0 C175.67 0, 180 4.33, 180 13 M167 0 C175.67 0, 180 4.33, 180 13 M180 13 C180 23.07, 180 33.13, 180 39 M180 13 C180 19.76, 180 26.52, 180 39 M180 39 C180 47.67, 175.67 52, 167 52 M180 39 C180 47.67, 175.67 52, 167 52 M167 52 C124.22 52, 81.44 52, 13 52 M167 52 C106.47 52, 45.93 52, 13 52 M13 52 C4.33 52, 0 47.67, 0 39 M13 52 C4.33 52, 0 47.67, 0 39 M0 39 C0 29.9, 0 20.79, 0 13 M0 39 C0 29.83, 0 20.66, 0 13 M0 13 C0 4.33, 4.33 0, 13 0 M0 13 C0 4.33, 4.33 0, 13 0" stroke="#1e1e1e" stroke-width="2" fill="none"></path></g><g transform="translate(76.64501190185547 107.75) rotate(0 23.35498809814453 11.25)"><text x="23.35498809814453" y="16.1103515625" font-family="Helvetica, Segoe UI Emoji" font-size="18px" fill="#1e1e1e" text-anchor="middle" style="white-space: pre;" direction="ltr" dominant-baseline="alphabetic">리서치</text></g><g stroke-linecap="round" transform="translate(10 177) rotate(0 90 26)"><path d="M13 0 C62.85 0, 112.69 0, 167 0 C175.67 0, 180 4.33, 180 13 C180 21.3, 180 29.59, 180 39 C180 47.67, 175.67 52, 167 52 C106.92 52, 46.84 52, 13 52 C4.33 52, 0 47.67, 0 39 C0 31.71, 0 24.41, 0 13 C0 4.33, 4.33 0, 13 0" stroke="none" stroke-width="0" fill="#e9ecef"></path><path d="M13 0 C55.62 0, 98.24 0, 167 0 M13 0 C65.39 0, 117.78 0, 167 0 M167 0 C175.67 0, 180 4.33, 180 13 M167 0 C175.67 0, 180 4.33, 180 13 M180 13 C180 18.27, 180 23.53, 180 39 M180 13 C180 19.29, 180 25.58, 180 39 M180 39 C180 47.67, 175.67 52, 167 52 M180 39 C180 47.67, 175.67 52, 167 52 M167 52 C106.41 52, 45.83 52, 13 52 M167 52 C120.62 52, 74.24 52, 13 52 M13 52 C4.33 52, 0 47.67, 0 39 M13 52 C4.33 52, 0 47.67, 0 39 M0 39 C0 29.89, 0 20.78, 0 13 M0 39 C0 29.52, 0 20.03, 0 13 M0 13 C0 4.33, 4.33 0, 13 0 M0 13 C0 4.33, 4.33 0, 13 0" stroke="#1e1e1e" stroke-width="2" fill="none"></path></g><g transform="translate(84.43000793457031 191.75) rotate(0 15.569992065429688 11.25)"><text x="15.569992065429688" y="16.1103515625" font-family="Helvetica, Segoe UI Emoji" font-size="18px" fill="#1e1e1e" text-anchor="middle" style="white-space: pre;" direction="ltr" dominant-baseline="alphabetic">설계</text></g><g stroke-linecap="round" transform="translate(10 261) rotate(0 90 26)"><path d="M13 0 C50.4 0, 87.79 0, 167 0 C175.67 0, 180 4.33, 180 13 C180 19.4, 180 25.81, 180 39 C180 47.67, 175.67 52, 167 52 C111.66 52, 56.31 52, 13 52 C4.33 52, 0 47.67, 0 39 C0 32.28, 0 25.56, 0 13 C0 4.33, 4.33 0, 13 0" stroke="none" stroke-width="0" fill="#e9ecef"></path><path d="M13 0 C51.77 0, 90.55 0, 167 0 M13 0 C44.09 0, 75.18 0, 167 0 M167 0 C175.67 0, 180 4.33, 180 13 M167 0 C175.67 0, 180 4.33, 180 13 M180 13 C180 21.48, 180 29.95, 180 39 M180 13 C180 22.88, 180 32.76, 180 39 M180 39 C180 47.67, 175.67 52, 167 52 M180 39 C180 47.67, 175.67 52, 167 52 M167 52 C133.97 52, 100.93 52, 13 52 M167 52 C113.94 52, 60.89 52, 13 52 M13 52 C4.33 52, 0 47.67, 0 39 M13 52 C4.33 52, 0 47.67, 0 39 M0 39 C0 28.86, 0 18.72, 0 13 M0 39 C0 31.89, 0 24.78, 0 13 M0 13 C0 4.33, 4.33 0, 13 0 M0 13 C0 4.33, 4.33 0, 13 0" stroke="#1e1e1e" stroke-width="2" fill="none"></path></g><g transform="translate(84.43000793457031 275.75) rotate(0 15.569992065429688 11.25)"><text x="15.569992065429688" y="16.1103515625" font-family="Helvetica, Segoe UI Emoji" font-size="18px" fill="#1e1e1e" text-anchor="middle" style="white-space: pre;" direction="ltr" dominant-baseline="alphabetic">구현</text></g><g stroke-linecap="round" transform="translate(10 345) rotate(0 90 26)"><path d="M13 0 C58.53 0, 104.07 0, 167 0 C175.67 0, 180 4.33, 180 13 C180 20.12, 180 27.23, 180 39 C180 47.67, 175.67 52, 167 52 C111.31 52, 55.62 52, 13 52 C4.33 52, 0 47.67, 0 39 C0 31.48, 0 23.95, 0 13 C0 4.33, 4.33 0, 13 0" stroke="none" stroke-width="0" fill="#e9ecef"></path><path d="M13 0 C44.02 0, 75.05 0, 167 0 M13 0 C68.46 0, 123.91 0, 167 0 M167 0 C175.67 0, 180 4.33, 180 13 M167 0 C175.67 0, 180 4.33, 180 13 M180 13 C180 19.58, 180 26.16, 180 39 M180 13 C180 22.25, 180 31.5, 180 39 M180 39 C180 47.67, 175.67 52, 167 52 M180 39 C180 47.67, 175.67 52, 167 52 M167 52 C125.87 52, 84.74 52, 13 52 M167 52 C122.88 52, 78.76 52, 13 52 M13 52 C4.33 52, 0 47.67, 0 39 M13 52 C4.33 52, 0 47.67, 0 39 M0 39 C0 31.2, 0 23.39, 0 13 M0 39 C0 32.52, 0 26.05, 0 13 M0 13 C0 4.33, 4.33 0, 13 0 M0 13 C0 4.33, 4.33 0, 13 0" stroke="#1e1e1e" stroke-width="2" fill="none"></path></g><g transform="translate(76.34800714254379 359.75) rotate(0 23.651992857456207 11.25)"><text x="23.651992857456207" y="16.1103515625" font-family="Helvetica, Segoe UI Emoji" font-size="18px" fill="#1e1e1e" text-anchor="middle" style="white-space: pre;" direction="ltr" dominant-baseline="alphabetic">테스트</text></g><g stroke-linecap="round" transform="translate(10 429) rotate(0 90 26)"><path d="M13 0 C59.51 0, 106.02 0, 167 0 C175.67 0, 180 4.33, 180 13 C180 21.79, 180 30.57, 180 39 C180 47.67, 175.67 52, 167 52 C117.38 52, 67.77 52, 13 52 C4.33 52, 0 47.67, 0 39 C0 32.06, 0 25.12, 0 13 C0 4.33, 4.33 0, 13 0" stroke="none" stroke-width="0" fill="#e9ecef"></path><path d="M13 0 C55.15 0, 97.3 0, 167 0 M13 0 C44.78 0, 76.56 0, 167 0 M167 0 C175.67 0, 180 4.33, 180 13 M167 0 C175.67 0, 180 4.33, 180 13 M180 13 C180 21.77, 180 30.54, 180 39 M180 13 C180 19.96, 180 26.92, 180 39 M180 39 C180 47.67, 175.67 52, 167 52 M180 39 C180 47.67, 175.67 52, 167 52 M167 52 C107.7 52, 48.41 52, 13 52 M167 52 C127.31 52, 87.63 52, 13 52 M13 52 C4.33 52, 0 47.67, 0 39 M13 52 C4.33 52, 0 47.67, 0 39 M0 39 C0 31.97, 0 24.94, 0 13 M0 39 C0 29.13, 0 19.26, 0 13 M0 13 C0 4.33, 4.33 0, 13 0 M0 13 C0 4.33, 4.33 0, 13 0" stroke="#1e1e1e" stroke-width="2" fill="none"></path></g><g transform="translate(84.36700314283371 443.75) rotate(0 15.63299685716629 11.25)"><text x="15.63299685716629" y="16.1103515625" font-family="Helvetica, Segoe UI Emoji" font-size="18px" fill="#1e1e1e" text-anchor="middle" style="white-space: pre;" direction="ltr" dominant-baseline="alphabetic">검토</text></g><g stroke-linecap="round"><g transform="translate(100 145) rotate(0 0 16)"><path d="M0 0 C0 5.33, 0 26.67, 0 32 M0 0 C0 5.33, 0 26.67, 0 32" stroke="#adb5bd" stroke-width="2" fill="none"></path></g><g transform="translate(100 145) rotate(0 0 16)"><path d="M-5.47 16.96 C-3.7 21.84, -1.92 26.72, 0 32 M-5.47 16.96 C-3.83 21.47, -2.2 25.97, 0 32" stroke="#adb5bd" stroke-width="2" fill="none"></path></g><g transform="translate(100 145) rotate(0 0 16)"><path d="M5.47 16.96 C3.7 21.84, 1.92 26.72, 0 32 M5.47 16.96 C3.83 21.47, 2.2 25.97, 0 32" stroke="#adb5bd" stroke-width="2" fill="none"></path></g></g><mask></mask><g stroke-linecap="round"><g transform="translate(100 229) rotate(0 0 16)"><path d="M0 0 C0 5.33, 0 26.67, 0 32 M0 0 C0 5.33, 0 26.67, 0 32" stroke="#adb5bd" stroke-width="2" fill="none"></path></g><g transform="translate(100 229) rotate(0 0 16)"><path d="M-5.47 16.96 C-3.35 22.79, -1.24 28.61, 0 32 M-5.47 16.96 C-4.05 20.87, -2.63 24.78, 0 32" stroke="#adb5bd" stroke-width="2" fill="none"></path></g><g transform="translate(100 229) rotate(0 0 16)"><path d="M5.47 16.96 C3.35 22.79, 1.24 28.61, 0 32 M5.47 16.96 C4.05 20.87, 2.63 24.78, 0 32" stroke="#adb5bd" stroke-width="2" fill="none"></path></g></g><mask></mask><g stroke-linecap="round"><g transform="translate(100 313) rotate(0 0 16)"><path d="M0 0 C0 5.33, 0 26.67, 0 32 M0 0 C0 5.33, 0 26.67, 0 32" stroke="#adb5bd" stroke-width="2" fill="none"></path></g><g transform="translate(100 313) rotate(0 0 16)"><path d="M-5.47 16.96 C-4.29 20.22, -3.1 23.48, 0 32 M-5.47 16.96 C-4.02 20.95, -2.57 24.94, 0 32" stroke="#adb5bd" stroke-width="2" fill="none"></path></g><g transform="translate(100 313) rotate(0 0 16)"><path d="M5.47 16.96 C4.29 20.22, 3.1 23.48, 0 32 M5.47 16.96 C4.02 20.95, 2.57 24.94, 0 32" stroke="#adb5bd" stroke-width="2" fill="none"></path></g></g><mask></mask><g stroke-linecap="round"><g transform="translate(100 397) rotate(0 0 16)"><path d="M0 0 C0 5.33, 0 26.67, 0 32 M0 0 C0 5.33, 0 26.67, 0 32" stroke="#adb5bd" stroke-width="2" fill="none"></path></g><g transform="translate(100 397) rotate(0 0 16)"><path d="M-5.47 16.96 C-4.36 20.01, -3.26 23.06, 0 32 M-5.47 16.96 C-4.15 20.6, -2.83 24.24, 0 32" stroke="#adb5bd" stroke-width="2" fill="none"></path></g><g transform="translate(100 397) rotate(0 0 16)"><path d="M5.47 16.96 C4.36 20.01, 3.26 23.06, 0 32 M5.47 16.96 C4.15 20.6, 2.83 24.24, 0 32" stroke="#adb5bd" stroke-width="2" fill="none"></path></g></g><mask></mask><g transform="translate(32 496) rotate(0 68 10)"><text x="68" y="12.5302734375" font-family="Helvetica, Segoe UI Emoji" font-size="14px" fill="#868e96" text-anchor="middle" style="white-space: pre;" direction="ltr" dominant-baseline="alphabetic">나 혼자 순서대로</text></g><g transform="translate(200 110) rotate(0 10 9)"><text x="10" y="11.63525390625" font-family="Helvetica, Segoe UI Emoji" font-size="13px" fill="#868e96" text-anchor="middle" style="white-space: pre;" direction="ltr" dominant-baseline="alphabetic">나</text></g><g transform="translate(200 194) rotate(0 10 9)"><text x="10" y="11.63525390625" font-family="Helvetica, Segoe UI Emoji" font-size="13px" fill="#868e96" text-anchor="middle" style="white-space: pre;" direction="ltr" dominant-baseline="alphabetic">나</text></g><g transform="translate(200 278) rotate(0 10 9)"><text x="10" y="11.63525390625" font-family="Helvetica, Segoe UI Emoji" font-size="13px" fill="#868e96" text-anchor="middle" style="white-space: pre;" direction="ltr" dominant-baseline="alphabetic">나</text></g><g transform="translate(200 362) rotate(0 10 9)"><text x="10" y="11.63525390625" font-family="Helvetica, Segoe UI Emoji" font-size="13px" fill="#868e96" text-anchor="middle" style="white-space: pre;" direction="ltr" dominant-baseline="alphabetic">나</text></g><g transform="translate(200 446) rotate(0 10 9)"><text x="10" y="11.63525390625" font-family="Helvetica, Segoe UI Emoji" font-size="13px" fill="#868e96" text-anchor="middle" style="white-space: pre;" direction="ltr" dominant-baseline="alphabetic">나</text></g><g stroke-linecap="round"><g transform="translate(315 58) rotate(0 0 220)"><path d="M0 0 C0 73.33, 0 366.67, 0 440" stroke="#dee2e6" stroke-width="1.5" fill="none" stroke-dasharray="8 9"></path></g></g><mask></mask><g transform="translate(530 10) rotate(0 30 17.5)"><text x="30" y="25.060546875" font-family="Helvetica, Segoe UI Emoji" font-size="28px" fill="#1e1e1e" text-anchor="middle" style="white-space: pre;" direction="ltr" dominant-baseline="alphabetic">현재</text></g><g transform="translate(470 46) rotate(0 90 11)"><text x="90" y="13.42529296875" font-family="Helvetica, Segoe UI Emoji" font-size="15px" fill="#868e96" text-anchor="middle" style="white-space: pre;" direction="ltr" dominant-baseline="alphabetic">나누고, 맡기고, 검수</text></g><g stroke-linecap="round" transform="translate(440 93) rotate(0 120 28)"><path d="M14 0 C79.35 0, 144.69 0, 226 0 C235.33 0, 240 4.67, 240 14 C240 20.27, 240 26.55, 240 42 C240 51.33, 235.33 56, 226 56 C145.73 56, 65.46 56, 14 56 C4.67 56, 0 51.33, 0 42 C0 34.18, 0 26.37, 0 14 C0 4.67, 4.67 0, 14 0" stroke="none" stroke-width="0" fill="#ffd8a8"></path><path d="M14 0 C73.28 0, 132.55 0, 226 0 M14 0 C94.64 0, 175.29 0, 226 0 M226 0 C235.33 0, 240 4.67, 240 14 M226 0 C235.33 0, 240 4.67, 240 14 M240 14 C240 22.16, 240 30.33, 240 42 M240 14 C240 20.89, 240 27.78, 240 42 M240 42 C240 51.33, 235.33 56, 226 56 M240 42 C240 51.33, 235.33 56, 226 56 M226 56 C154.53 56, 83.06 56, 14 56 M226 56 C174.92 56, 123.84 56, 14 56 M14 56 C4.67 56, 0 51.33, 0 42 M14 56 C4.67 56, 0 51.33, 0 42 M0 42 C0 33.79, 0 25.57, 0 14 M0 42 C0 35.19, 0 28.38, 0 14 M0 14 C0 4.67, 4.67 0, 14 0 M0 14 C0 4.67, 4.67 0, 14 0" stroke="#1e1e1e" stroke-width="2" fill="none"></path></g><g transform="translate(490.1172637939453 110.375) rotate(0 69.88273620605469 10.625)"><text x="69.88273620605469" y="15.21533203125" font-family="Helvetica, Segoe UI Emoji" font-size="17px" fill="#1e1e1e" text-anchor="middle" style="white-space: pre;" direction="ltr" dominant-baseline="alphabetic">개발자 (설계 &amp; 분해)</text></g><g transform="translate(545 165) rotate(0 15 10)"><text x="15" y="11.63525390625" font-family="Helvetica, Segoe UI Emoji" font-size="13px" fill="#868e96" text-anchor="middle" style="white-space: pre;" direction="ltr" dominant-baseline="alphabetic">위임</text></g><g stroke-linecap="round" transform="translate(336 205) rotate(0 67.5 26)"><path d="M13 0 C45.67 0, 78.34 0, 122 0 C130.67 0, 135 4.33, 135 13 C135 18.6, 135 24.2, 135 39 C135 47.67, 130.67 52, 122 52 C91.91 52, 61.81 52, 13 52 C4.33 52, 0 47.67, 0 39 C0 32.03, 0 25.05, 0 13 C0 4.33, 4.33 0, 13 0" stroke="none" stroke-width="0" fill="#d0bfff"></path><path d="M13 0 C36.38 0, 59.76 0, 122 0 M13 0 C50.55 0, 88.11 0, 122 0 M122 0 C130.67 0, 135 4.33, 135 13 M122 0 C130.67 0, 135 4.33, 135 13 M135 13 C135 23.14, 135 33.28, 135 39 M135 13 C135 20.11, 135 27.22, 135 39 M135 39 C135 47.67, 130.67 52, 122 52 M135 39 C135 47.67, 130.67 52, 122 52 M122 52 C95.53 52, 69.06 52, 13 52 M122 52 C87.22 52, 52.43 52, 13 52 M13 52 C4.33 52, 0 47.67, 0 39 M13 52 C4.33 52, 0 47.67, 0 39 M0 39 C0 29.66, 0 20.31, 0 13 M0 39 C0 31.71, 0 24.41, 0 13 M0 13 C0 4.33, 4.33 0, 13 0 M0 13 C0 4.33, 4.33 0, 13 0" stroke="#1e1e1e" stroke-width="2" fill="none"></path></g><g transform="translate(379.8787536621094 221) rotate(0 23.621246337890625 10)"><text x="23.621246337890625" y="14.3203125" font-family="Helvetica, Segoe UI Emoji" font-size="16px" fill="#1e1e1e" text-anchor="middle" style="white-space: pre;" direction="ltr" dominant-baseline="alphabetic">탐색 AI</text></g><g stroke-linecap="round" transform="translate(493 205) rotate(0 67.5 26)"><path d="M13 0 C51 0, 88.99 0, 122 0 C130.67 0, 135 4.33, 135 13 C135 19.67, 135 26.34, 135 39 C135 47.67, 130.67 52, 122 52 C86.26 52, 50.51 52, 13 52 C4.33 52, 0 47.67, 0 39 C0 29.69, 0 20.38, 0 13 C0 4.33, 4.33 0, 13 0" stroke="none" stroke-width="0" fill="#a5d8ff"></path><path d="M13 0 C42.11 0, 71.23 0, 122 0 M13 0 C44.23 0, 75.46 0, 122 0 M122 0 C130.67 0, 135 4.33, 135 13 M122 0 C130.67 0, 135 4.33, 135 13 M135 13 C135 20.8, 135 28.61, 135 39 M135 13 C135 19.48, 135 25.95, 135 39 M135 39 C135 47.67, 130.67 52, 122 52 M135 39 C135 47.67, 130.67 52, 122 52 M122 52 C89.77 52, 57.54 52, 13 52 M122 52 C95.15 52, 68.3 52, 13 52 M13 52 C4.33 52, 0 47.67, 0 39 M13 52 C4.33 52, 0 47.67, 0 39 M0 39 C0 29.6, 0 20.19, 0 13 M0 39 C0 32.28, 0 25.56, 0 13 M0 13 C0 4.33, 4.33 0, 13 0 M0 13 C0 4.33, 4.33 0, 13 0" stroke="#1e1e1e" stroke-width="2" fill="none"></path></g><g transform="translate(536.8787536621094 221) rotate(0 23.621246337890625 10)"><text x="23.621246337890625" y="14.3203125" font-family="Helvetica, Segoe UI Emoji" font-size="16px" fill="#1e1e1e" text-anchor="middle" style="white-space: pre;" direction="ltr" dominant-baseline="alphabetic">구현 AI</text></g><g stroke-linecap="round" transform="translate(650 205) rotate(0 67.5 26)"><path d="M13 0 C44 0, 74.99 0, 122 0 C130.67 0, 135 4.33, 135 13 C135 20.13, 135 27.27, 135 39 C135 47.67, 130.67 52, 122 52 C85.85 52, 49.7 52, 13 52 C4.33 52, 0 47.67, 0 39 C0 29.6, 0 20.2, 0 13 C0 4.33, 4.33 0, 13 0" stroke="none" stroke-width="0" fill="#b2f2bb"></path><path d="M13 0 C54.97 0, 96.94 0, 122 0 M13 0 C41.09 0, 69.18 0, 122 0 M122 0 C130.67 0, 135 4.33, 135 13 M122 0 C130.67 0, 135 4.33, 135 13 M135 13 C135 20.03, 135 27.06, 135 39 M135 13 C135 22.87, 135 32.74, 135 39 M135 39 C135 47.67, 130.67 52, 122 52 M135 39 C135 47.67, 130.67 52, 122 52 M122 52 C89.08 52, 56.16 52, 13 52 M122 52 C92.17 52, 62.34 52, 13 52 M13 52 C4.33 52, 0 47.67, 0 39 M13 52 C4.33 52, 0 47.67, 0 39 M0 39 C0 30.62, 0 22.25, 0 13 M0 39 C0 31.48, 0 23.95, 0 13 M0 13 C0 4.33, 4.33 0, 13 0 M0 13 C0 4.33, 4.33 0, 13 0" stroke="#1e1e1e" stroke-width="2" fill="none"></path></g><g transform="translate(693.8787536621094 221) rotate(0 23.621246337890625 10)"><text x="23.621246337890625" y="14.3203125" font-family="Helvetica, Segoe UI Emoji" font-size="16px" fill="#1e1e1e" text-anchor="middle" style="white-space: pre;" direction="ltr" dominant-baseline="alphabetic">검토 AI</text></g><g stroke-linecap="round"><g transform="translate(560 149) rotate(0 -78.5 28)"><path d="M0 0 C-26.17 9.33, -130.83 46.67, -157 56 M0 0 C-26.17 9.33, -130.83 46.67, -157 56" stroke="#adb5bd" stroke-width="2" fill="none"></path></g><g transform="translate(560 149) rotate(0 -78.5 28)"><path d="M-137.75 40.05 C-141.79 43.4, -145.83 46.75, -157 56 M-137.75 40.05 C-142.67 44.13, -147.6 48.22, -157 56" stroke="#adb5bd" stroke-width="2" fill="none"></path></g><g transform="translate(560 149) rotate(0 -78.5 28)"><path d="M-132 56.16 C-137.25 56.13, -142.5 56.09, -157 56 M-132 56.16 C-138.4 56.12, -144.8 56.08, -157 56" stroke="#adb5bd" stroke-width="2" fill="none"></path></g></g><mask></mask><g stroke-linecap="round"><g transform="translate(560 149) rotate(0 0 28)"><path d="M0 0 C0 9.33, 0 46.67, 0 56 M0 0 C0 9.33, 0 46.67, 0 56" stroke="#adb5bd" stroke-width="2" fill="none"></path></g><g transform="translate(560 149) rotate(0 0 28)"><path d="M-8.55 32.51 C-5.56 40.73, -2.56 48.96, 0 56 M-8.55 32.51 C-5.53 40.79, -2.52 49.08, 0 56" stroke="#adb5bd" stroke-width="2" fill="none"></path></g><g transform="translate(560 149) rotate(0 0 28)"><path d="M8.55 32.51 C5.56 40.73, 2.56 48.96, 0 56 M8.55 32.51 C5.53 40.79, 2.52 49.08, 0 56" stroke="#adb5bd" stroke-width="2" fill="none"></path></g></g><mask></mask><g stroke-linecap="round"><g transform="translate(560 149) rotate(0 78.5 28)"><path d="M0 0 C26.17 9.33, 130.83 46.67, 157 56 M0 0 C26.17 9.33, 130.83 46.67, 157 56" stroke="#adb5bd" stroke-width="2" fill="none"></path></g><g transform="translate(560 149) rotate(0 78.5 28)"><path d="M132 56.16 C139.29 56.11, 146.58 56.07, 157 56 M132 56.16 C138.15 56.12, 144.31 56.08, 157 56" stroke="#adb5bd" stroke-width="2" fill="none"></path></g><g transform="translate(560 149) rotate(0 78.5 28)"><path d="M137.75 40.05 C143.36 44.7, 148.97 49.35, 157 56 M137.75 40.05 C142.48 43.98, 147.22 47.9, 157 56" stroke="#adb5bd" stroke-width="2" fill="none"></path></g></g><mask></mask><g transform="translate(545 272) rotate(0 15 10)"><text x="15" y="11.63525390625" font-family="Helvetica, Segoe UI Emoji" font-size="13px" fill="#868e96" text-anchor="middle" style="white-space: pre;" direction="ltr" dominant-baseline="alphabetic">수렴</text></g><g stroke-linecap="round" transform="translate(440 312) rotate(0 120 28)"><path d="M14 0 C96.19 0, 178.38 0, 226 0 C235.33 0, 240 4.67, 240 14 C240 21.11, 240 28.22, 240 42 C240 51.33, 235.33 56, 226 56 C155.37 56, 84.75 56, 14 56 C4.67 56, 0 51.33, 0 42 C0 35.22, 0 28.45, 0 14 C0 4.67, 4.67 0, 14 0" stroke="none" stroke-width="0" fill="#ffd8a8"></path><path d="M14 0 C96.04 0, 178.07 0, 226 0 M14 0 C69.21 0, 124.42 0, 226 0 M226 0 C235.33 0, 240 4.67, 240 14 M226 0 C235.33 0, 240 4.67, 240 14 M240 14 C240 22.44, 240 30.88, 240 42 M240 14 C240 20.53, 240 27.05, 240 42 M240 42 C240 51.33, 235.33 56, 226 56 M240 42 C240 51.33, 235.33 56, 226 56 M226 56 C171.51 56, 117.01 56, 14 56 M226 56 C149.55 56, 73.1 56, 14 56 M14 56 C4.67 56, 0 51.33, 0 42 M14 56 C4.67 56, 0 51.33, 0 42 M0 42 C0 31.55, 0 21.09, 0 14 M0 42 C0 35.73, 0 29.45, 0 14 M0 14 C0 4.67, 4.67 0, 14 0 M0 14 C0 4.67, 4.67 0, 14 0" stroke="#1e1e1e" stroke-width="2" fill="none"></path></g><g transform="translate(490.1172637939453 329.375) rotate(0 69.88273620605469 10.625)"><text x="69.88273620605469" y="15.21533203125" font-family="Helvetica, Segoe UI Emoji" font-size="17px" fill="#1e1e1e" text-anchor="middle" style="white-space: pre;" direction="ltr" dominant-baseline="alphabetic">개발자 (검수 &amp; 통합)</text></g><g stroke-linecap="round"><g transform="translate(403 257) rotate(0 78.5 27.5)"><path d="M0 0 C26.17 9.17, 130.83 45.83, 157 55 M0 0 C26.17 9.17, 130.83 45.83, 157 55" stroke="#adb5bd" stroke-width="2" fill="none"></path></g><g transform="translate(403 257) rotate(0 78.5 27.5)"><path d="M132 55.3 C141.03 55.19, 150.06 55.08, 157 55 M132 55.3 C139.46 55.21, 146.91 55.12, 157 55" stroke="#adb5bd" stroke-width="2" fill="none"></path></g><g transform="translate(403 257) rotate(0 78.5 27.5)"><path d="M137.66 39.16 C144.64 44.88, 151.63 50.61, 157 55 M137.66 39.16 C143.42 43.89, 149.19 48.61, 157 55" stroke="#adb5bd" stroke-width="2" fill="none"></path></g></g><mask></mask><g stroke-linecap="round"><g transform="translate(560 257) rotate(0 0 27.5)"><path d="M0 0 C0 9.17, 0 45.83, 0 55 M0 0 C0 9.17, 0 45.83, 0 55" stroke="#adb5bd" stroke-width="2" fill="none"></path></g><g transform="translate(560 257) rotate(0 0 27.5)"><path d="M-8.55 31.51 C-5.98 38.56, -3.42 45.61, 0 55 M-8.55 31.51 C-6.42 37.36, -4.29 43.21, 0 55" stroke="#adb5bd" stroke-width="2" fill="none"></path></g><g transform="translate(560 257) rotate(0 0 27.5)"><path d="M8.55 31.51 C5.98 38.56, 3.42 45.61, 0 55 M8.55 31.51 C6.42 37.36, 4.29 43.21, 0 55" stroke="#adb5bd" stroke-width="2" fill="none"></path></g></g><mask></mask><g stroke-linecap="round"><g transform="translate(717 257) rotate(0 -78.5 27.5)"><path d="M0 0 C-26.17 9.17, -130.83 45.83, -157 55 M0 0 C-26.17 9.17, -130.83 45.83, -157 55" stroke="#adb5bd" stroke-width="2" fill="none"></path></g><g transform="translate(717 257) rotate(0 -78.5 27.5)"><path d="M-137.66 39.16 C-143.22 43.72, -148.78 48.27, -157 55 M-137.66 39.16 C-142.03 42.74, -146.4 46.32, -157 55" stroke="#adb5bd" stroke-width="2" fill="none"></path></g><g transform="translate(717 257) rotate(0 -78.5 27.5)"><path d="M-132 55.3 C-139.19 55.22, -146.37 55.13, -157 55 M-132 55.3 C-137.65 55.23, -143.3 55.17, -157 55" stroke="#adb5bd" stroke-width="2" fill="none"></path></g></g><mask></mask><g transform="translate(480 384) rotate(0 80 10)"><text x="80" y="12.5302734375" font-family="Helvetica, Segoe UI Emoji" font-size="14px" fill="#868e96" text-anchor="middle" style="white-space: pre;" direction="ltr" dominant-baseline="alphabetic">나는 설계하고 검수만</text></g><g transform="translate(473 223) rotate(0 10 8)"><text x="10" y="12.5302734375" font-family="Helvetica, Segoe UI Emoji" font-size="14px" fill="#1e1e1e" text-anchor="middle" style="white-space: pre;" direction="ltr" dominant-baseline="alphabetic">⚡</text></g><g transform="translate(630 223) rotate(0 10 8)"><text x="10" y="12.5302734375" font-family="Helvetica, Segoe UI Emoji" font-size="14px" fill="#1e1e1e" text-anchor="middle" style="white-space: pre;" direction="ltr" dominant-baseline="alphabetic">⚡</text></g></svg>