<svg version="1.1" xmlns="http://www.w3.org/2000/svg" viewBox="0 0 557 812" width="557" height="812" class="excalidraw-svg"><!-- svg-source:excalidraw --><metadata></metadata><defs><style class="style-fonts">
      </style></defs><rect x="0" y="0" width="557" height="812" fill="#ffffff"></rect><g stroke-linecap="round" transform="translate(107 55) rotate(0 105 24)"><path d="M12 0 C55.05 0, 98.09 0, 198 0 C206 0, 210 4, 210 12 C210 16.85, 210 21.7, 210 36 C210 44, 206 48, 198 48 C138.02 48, 78.05 48, 12 48 C4 48, 0 44, 0 36 C0 26.96, 0 17.93, 0 12 C0 4, 4 0, 12 0" stroke="none" stroke-width="0" fill="#ffd8a8"></path><path d="M12 0 C81.86 0, 151.73 0, 198 0 M12 0 C65.58 0, 119.15 0, 198 0 M198 0 C206 0, 210 4, 210 12 M198 0 C206 0, 210 4, 210 12 M210 12 C210 18.69, 210 25.39, 210 36 M210 12 C210 18.78, 210 25.55, 210 36 M210 36 C210 44, 206 48, 198 48 M210 36 C210 44, 206 48, 198 48 M198 48 C144.82 48, 91.64 48, 12 48 M198 48 C129.21 48, 60.42 48, 12 48 M12 48 C4 48, 0 44, 0 36 M12 48 C4 48, 0 44, 0 36 M0 36 C0 30.37, 0 24.73, 0 12 M0 36 C0 28.72, 0 21.44, 0 12 M0 12 C0 4, 4 0, 12 0 M0 12 C0 4, 4 0, 12 0" stroke="#1e1e1e" stroke-width="1" fill="none"></path></g><g transform="translate(182.09735107421875 69) rotate(0 29.90264892578125 10)"><text x="29.90264892578125" y="14.3203125" font-family="Helvetica, Segoe UI Emoji" font-size="16px" fill="#1e1e1e" text-anchor="middle" style="white-space: pre;" direction="ltr" dominant-baseline="alphabetic">작업 지시</text></g><g stroke-linecap="round" transform="translate(107 143) rotate(0 105 28)"><path d="M14 0 C77.99 0, 141.99 0, 196 0 C205.33 0, 210 4.67, 210 14 C210 24.54, 210 35.07, 210 42 C210 51.33, 205.33 56, 196 56 C130.59 56, 65.17 56, 14 56 C4.67 56, 0 51.33, 0 42 C0 33.56, 0 25.11, 0 14 C0 4.67, 4.67 0, 14 0" stroke="none" stroke-width="0" fill="#a5d8ff"></path><path d="M14 0 C59.07 0, 104.14 0, 196 0 M14 0 C79.48 0, 144.95 0, 196 0 M196 0 C205.33 0, 210 4.67, 210 14 M196 0 C205.33 0, 210 4.67, 210 14 M210 14 C210 20.87, 210 27.75, 210 42 M210 14 C210 20.77, 210 27.55, 210 42 M210 42 C210 51.33, 205.33 56, 196 56 M210 42 C210 51.33, 205.33 56, 196 56 M196 56 C132.44 56, 68.88 56, 14 56 M196 56 C124.66 56, 53.32 56, 14 56 M14 56 C4.67 56, 0 51.33, 0 42 M14 56 C4.67 56, 0 51.33, 0 42 M0 42 C0 34.21, 0 26.41, 0 14 M0 42 C0 32.81, 0 23.62, 0 14 M0 14 C0 4.67, 4.67 0, 14 0 M0 14 C0 4.67, 4.67 0, 14 0" stroke="#1e1e1e" stroke-width="2" fill="none"></path></g><g transform="translate(146.5011215209961 159.75) rotate(0 65.4988784790039 11.25)"><text x="65.4988784790039" y="16.1103515625" font-family="Helvetica, Segoe UI Emoji" font-size="18px" fill="#1e1e1e" text-anchor="middle" style="white-space: pre;" direction="ltr" dominant-baseline="alphabetic">AI 오케스트레이터</text></g><g stroke-linecap="round" transform="translate(107 241) rotate(0 105 24)"><path d="M12 0 C76.52 0, 141.04 0, 198 0 C206 0, 210 4, 210 12 C210 21.33, 210 30.65, 210 36 C210 44, 206 48, 198 48 C159.34 48, 120.67 48, 12 48 C4 48, 0 44, 0 36 C0 30.2, 0 24.39, 0 12 C0 4, 4 0, 12 0" stroke="none" stroke-width="0" fill="#d0ebff"></path><path d="M12 0 C86.08 0, 160.17 0, 198 0 M12 0 C82.79 0, 153.58 0, 198 0 M198 0 C206 0, 210 4, 210 12 M198 0 C206 0, 210 4, 210 12 M210 12 C210 17.34, 210 22.68, 210 36 M210 12 C210 19.84, 210 27.69, 210 36 M210 36 C210 44, 206 48, 198 48 M210 36 C210 44, 206 48, 198 48 M198 48 C128.33 48, 58.66 48, 12 48 M198 48 C146.45 48, 94.9 48, 12 48 M12 48 C4 48, 0 44, 0 36 M12 48 C4 48, 0 44, 0 36 M0 36 C0 30.17, 0 24.34, 0 12 M0 36 C0 28.14, 0 20.28, 0 12 M0 12 C0 4, 4 0, 12 0 M0 12 C0 4, 4 0, 12 0" stroke="#1e1e1e" stroke-width="1" fill="none"></path></g><g transform="translate(182.09735107421875 255) rotate(0 29.90264892578125 10)"><text x="29.90264892578125" y="14.3203125" font-family="Helvetica, Segoe UI Emoji" font-size="16px" fill="#1e1e1e" text-anchor="middle" style="white-space: pre;" direction="ltr" dominant-baseline="alphabetic">계획 수립</text></g><g stroke-linecap="round" transform="translate(107 325) rotate(0 105 24)"><path d="M12 0 C54.89 0, 97.79 0, 198 0 C206 0, 210 4, 210 12 C210 20.7, 210 29.41, 210 36 C210 44, 206 48, 198 48 C144.39 48, 90.77 48, 12 48 C4 48, 0 44, 0 36 C0 29.96, 0 23.93, 0 12 C0 4, 4 0, 12 0" stroke="none" stroke-width="0" fill="#ffd8a8"></path><path d="M12 0 C60.89 0, 109.79 0, 198 0 M12 0 C76.09 0, 140.18 0, 198 0 M198 0 C206 0, 210 4, 210 12 M198 0 C206 0, 210 4, 210 12 M210 12 C210 20.45, 210 28.9, 210 36 M210 12 C210 19.48, 210 26.96, 210 36 M210 36 C210 44, 206 48, 198 48 M210 36 C210 44, 206 48, 198 48 M198 48 C135.46 48, 72.91 48, 12 48 M198 48 C150.52 48, 103.03 48, 12 48 M12 48 C4 48, 0 44, 0 36 M12 48 C4 48, 0 44, 0 36 M0 36 C0 29.76, 0 23.51, 0 12 M0 36 C0 29.72, 0 23.43, 0 12 M0 12 C0 4, 4 0, 12 0 M0 12 C0 4, 4 0, 12 0" stroke="#1e1e1e" stroke-width="1" fill="none"></path></g><g transform="translate(182.09735107421875 339) rotate(0 29.90264892578125 10)"><text x="29.90264892578125" y="14.3203125" font-family="Helvetica, Segoe UI Emoji" font-size="16px" fill="#1e1e1e" text-anchor="middle" style="white-space: pre;" direction="ltr" dominant-baseline="alphabetic">계획 검토</text></g><g stroke-linecap="round" transform="translate(107 413) rotate(0 105 24)"><path d="M12 0 C83.32 0, 154.63 0, 198 0 C206 0, 210 4, 210 12 C210 18.72, 210 25.45, 210 36 C210 44, 206 48, 198 48 C135.1 48, 72.2 48, 12 48 C4 48, 0 44, 0 36 C0 28.98, 0 21.96, 0 12 C0 4, 4 0, 12 0" stroke="none" stroke-width="0" fill="#d0ebff"></path><path d="M12 0 C57.35 0, 102.71 0, 198 0 M12 0 C49.85 0, 87.71 0, 198 0 M198 0 C206 0, 210 4, 210 12 M198 0 C206 0, 210 4, 210 12 M210 12 C210 19.05, 210 26.11, 210 36 M210 12 C210 21.09, 210 30.18, 210 36 M210 36 C210 44, 206 48, 198 48 M210 36 C210 44, 206 48, 198 48 M198 48 C146.69 48, 95.39 48, 12 48 M198 48 C158.17 48, 118.33 48, 12 48 M12 48 C4 48, 0 44, 0 36 M12 48 C4 48, 0 44, 0 36 M0 36 C0 29.32, 0 22.64, 0 12 M0 36 C0 26.42, 0 16.84, 0 12 M0 12 C0 4, 4 0, 12 0 M0 12 C0 4, 4 0, 12 0" stroke="#1e1e1e" stroke-width="1" fill="none"></path></g><g transform="translate(198.16000366210938 427) rotate(0 13.839996337890625 10)"><text x="13.839996337890625" y="14.3203125" font-family="Helvetica, Segoe UI Emoji" font-size="16px" fill="#1e1e1e" text-anchor="middle" style="white-space: pre;" direction="ltr" dominant-baseline="alphabetic">구현</text></g><g stroke-linecap="round" transform="translate(107 501) rotate(0 105 24)"><path d="M12 0 C59.07 0, 106.15 0, 198 0 C206 0, 210 4, 210 12 C210 18.73, 210 25.45, 210 36 C210 44, 206 48, 198 48 C139.88 48, 81.77 48, 12 48 C4 48, 0 44, 0 36 C0 27.97, 0 19.94, 0 12 C0 4, 4 0, 12 0" stroke="none" stroke-width="0" fill="#b2f2bb"></path><path d="M12 0 C51.22 0, 90.43 0, 198 0 M12 0 C80.28 0, 148.56 0, 198 0 M198 0 C206 0, 210 4, 210 12 M198 0 C206 0, 210 4, 210 12 M210 12 C210 19.79, 210 27.58, 210 36 M210 12 C210 17.24, 210 22.47, 210 36 M210 36 C210 44, 206 48, 198 48 M210 36 C210 44, 206 48, 198 48 M198 48 C160.42 48, 122.85 48, 12 48 M198 48 C123.72 48, 49.44 48, 12 48 M12 48 C4 48, 0 44, 0 36 M12 48 C4 48, 0 44, 0 36 M0 36 C0 27.28, 0 18.56, 0 12 M0 36 C0 30.83, 0 25.65, 0 12 M0 12 C0 4, 4 0, 12 0 M0 12 C0 4, 4 0, 12 0" stroke="#1e1e1e" stroke-width="1" fill="none"></path></g><g transform="translate(182.09735107421875 515) rotate(0 29.90264892578125 10)"><text x="29.90264892578125" y="14.3203125" font-family="Helvetica, Segoe UI Emoji" font-size="16px" fill="#1e1e1e" text-anchor="middle" style="white-space: pre;" direction="ltr" dominant-baseline="alphabetic">자동 리뷰</text></g><g stroke-linecap="round" transform="translate(107 583) rotate(0 105 24)"><path d="M12 0 C59.35 0, 106.69 0, 198 0 C206 0, 210 4, 210 12 C210 20.64, 210 29.29, 210 36 C210 44, 206 48, 198 48 C145.35 48, 92.69 48, 12 48 C4 48, 0 44, 0 36 C0 29.87, 0 23.74, 0 12 C0 4, 4 0, 12 0" stroke="none" stroke-width="0" fill="#d0ebff"></path><path d="M12 0 C49.33 0, 86.67 0, 198 0 M12 0 C49.71 0, 87.41 0, 198 0 M198 0 C206 0, 210 4, 210 12 M198 0 C206 0, 210 4, 210 12 M210 12 C210 17.71, 210 23.42, 210 36 M210 12 C210 19.87, 210 27.73, 210 36 M210 36 C210 44, 206 48, 198 48 M210 36 C210 44, 206 48, 198 48 M198 48 C125.33 48, 52.66 48, 12 48 M198 48 C139.55 48, 81.1 48, 12 48 M12 48 C4 48, 0 44, 0 36 M12 48 C4 48, 0 44, 0 36 M0 36 C0 26.45, 0 16.9, 0 12 M0 36 C0 28.92, 0 21.83, 0 12 M0 12 C0 4, 4 0, 12 0 M0 12 C0 4, 4 0, 12 0" stroke="#1e1e1e" stroke-width="1" fill="none"></path></g><g transform="translate(182.09735107421875 597) rotate(0 29.90264892578125 10)"><text x="29.90264892578125" y="14.3203125" font-family="Helvetica, Segoe UI Emoji" font-size="16px" fill="#1e1e1e" text-anchor="middle" style="white-space: pre;" direction="ltr" dominant-baseline="alphabetic">수정 반영</text></g><g stroke-linecap="round" transform="translate(107 675) rotate(0 105 24)"><path d="M12 0 C62.22 0, 112.44 0, 198 0 C206 0, 210 4, 210 12 C210 18.6, 210 25.19, 210 36 C210 44, 206 48, 198 48 C134.9 48, 71.8 48, 12 48 C4 48, 0 44, 0 36 C0 27.83, 0 19.66, 0 12 C0 4, 4 0, 12 0" stroke="none" stroke-width="0" fill="#ffd8a8"></path><path d="M12 0 C71.06 0, 130.12 0, 198 0 M12 0 C74.44 0, 136.88 0, 198 0 M198 0 C206 0, 210 4, 210 12 M198 0 C206 0, 210 4, 210 12 M210 12 C210 17.89, 210 23.77, 210 36 M210 12 C210 19.52, 210 27.04, 210 36 M210 36 C210 44, 206 48, 198 48 M210 36 C210 44, 206 48, 198 48 M198 48 C144.99 48, 91.99 48, 12 48 M198 48 C157.06 48, 116.13 48, 12 48 M12 48 C4 48, 0 44, 0 36 M12 48 C4 48, 0 44, 0 36 M0 36 C0 26.82, 0 17.65, 0 12 M0 36 C0 30.5, 0 24.99, 0 12 M0 12 C0 4, 4 0, 12 0 M0 12 C0 4, 4 0, 12 0" stroke="#1e1e1e" stroke-width="1" fill="none"></path></g><g transform="translate(182.06534811854362 689) rotate(0 29.934651881456375 10)"><text x="29.934651881456375" y="14.3203125" font-family="Helvetica, Segoe UI Emoji" font-size="16px" fill="#1e1e1e" text-anchor="middle" style="white-space: pre;" direction="ltr" dominant-baseline="alphabetic">최종 검수</text></g><g stroke-linecap="round" transform="translate(107 760) rotate(0 105 21)"><path d="M10.5 0 C76.41 0, 142.33 0, 199.5 0 C206.5 0, 210 3.5, 210 10.5 C210 15.48, 210 20.46, 210 31.5 C210 38.5, 206.5 42, 199.5 42 C145.19 42, 90.88 42, 10.5 42 C3.5 42, 0 38.5, 0 31.5 C0 23.46, 0 15.42, 0 10.5 C0 3.5, 3.5 0, 10.5 0" stroke="none" stroke-width="0" fill="#e9ecef"></path><path d="M10.5 0 C54.43 0, 98.36 0, 199.5 0 M10.5 0 C76.48 0, 142.46 0, 199.5 0 M199.5 0 C206.5 0, 210 3.5, 210 10.5 M199.5 0 C206.5 0, 210 3.5, 210 10.5 M210 10.5 C210 16.26, 210 22.03, 210 31.5 M210 10.5 C210 18.66, 210 26.81, 210 31.5 M210 31.5 C210 38.5, 206.5 42, 199.5 42 M210 31.5 C210 38.5, 206.5 42, 199.5 42 M199.5 42 C124.82 42, 50.14 42, 10.5 42 M199.5 42 C154.92 42, 110.35 42, 10.5 42 M10.5 42 C3.5 42, 0 38.5, 0 31.5 M10.5 42 C3.5 42, 0 38.5, 0 31.5 M0 31.5 C0 24.49, 0 17.47, 0 10.5 M0 31.5 C0 24.83, 0 18.15, 0 10.5 M0 10.5 C0 3.5, 3.5 0, 10.5 0 M0 10.5 C0 3.5, 3.5 0, 10.5 0" stroke="#1e1e1e" stroke-width="1" fill="none"></path></g><g transform="translate(198.16000366210938 771) rotate(0 13.839996337890625 10)"><text x="13.839996337890625" y="14.3203125" font-family="Helvetica, Segoe UI Emoji" font-size="16px" fill="#1e1e1e" text-anchor="middle" style="white-space: pre;" direction="ltr" dominant-baseline="alphabetic">완료</text></g><g stroke-linecap="round"><g transform="translate(212 103) rotate(0 0 20)"><path d="M0 0 C0 6.67, 0 33.33, 0 40 M0 0 C0 6.67, 0 33.33, 0 40" stroke="#adb5bd" stroke-width="2" fill="none"></path></g><g transform="translate(212 103) rotate(0 0 20)"><path d="M-6.84 21.21 C-4.9 26.54, -2.96 31.88, 0 40 M-6.84 21.21 C-4.9 26.54, -2.96 31.87, 0 40" stroke="#adb5bd" stroke-width="2" fill="none"></path></g><g transform="translate(212 103) rotate(0 0 20)"><path d="M6.84 21.21 C4.9 26.54, 2.96 31.88, 0 40 M6.84 21.21 C4.9 26.54, 2.96 31.87, 0 40" stroke="#adb5bd" stroke-width="2" fill="none"></path></g></g><mask></mask><g stroke-linecap="round"><g transform="translate(212 199) rotate(0 0 21)"><path d="M0 0 C0 7, 0 35, 0 42 M0 0 C0 7, 0 35, 0 42" stroke="#adb5bd" stroke-width="2" fill="none"></path></g><g transform="translate(212 199) rotate(0 0 21)"><path d="M-7.18 22.27 C-5.07 28.07, -2.96 33.87, 0 42 M-7.18 22.27 C-4.46 29.74, -1.74 37.22, 0 42" stroke="#adb5bd" stroke-width="2" fill="none"></path></g><g transform="translate(212 199) rotate(0 0 21)"><path d="M7.18 22.27 C5.07 28.07, 2.96 33.87, 0 42 M7.18 22.27 C4.46 29.74, 1.74 37.22, 0 42" stroke="#adb5bd" stroke-width="2" fill="none"></path></g></g><mask></mask><g stroke-linecap="round"><g transform="translate(212 289) rotate(0 0 18)"><path d="M0 0 C0 6, 0 30, 0 36 M0 0 C0 6, 0 30, 0 36" stroke="#adb5bd" stroke-width="2" fill="none"></path></g><g transform="translate(212 289) rotate(0 0 18)"><path d="M-6.16 19.09 C-3.83 25.47, -1.51 31.85, 0 36 M-6.16 19.09 C-4.07 24.81, -1.99 30.54, 0 36" stroke="#adb5bd" stroke-width="2" fill="none"></path></g><g transform="translate(212 289) rotate(0 0 18)"><path d="M6.16 19.09 C3.83 25.47, 1.51 31.85, 0 36 M6.16 19.09 C4.07 24.81, 1.99 30.54, 0 36" stroke="#adb5bd" stroke-width="2" fill="none"></path></g></g><mask></mask><g stroke-linecap="round"><g transform="translate(212 373) rotate(0 0 20)"><path d="M0 0 C0 6.67, 0 33.33, 0 40 M0 0 C0 6.67, 0 33.33, 0 40" stroke="#adb5bd" stroke-width="2" fill="none"></path></g><g transform="translate(212 373) rotate(0 0 20)"><path d="M-6.84 21.21 C-4.62 27.31, -2.4 33.41, 0 40 M-6.84 21.21 C-5.35 25.31, -3.86 29.41, 0 40" stroke="#adb5bd" stroke-width="2" fill="none"></path></g><g transform="translate(212 373) rotate(0 0 20)"><path d="M6.84 21.21 C4.62 27.31, 2.4 33.41, 0 40 M6.84 21.21 C5.35 25.31, 3.86 29.41, 0 40" stroke="#adb5bd" stroke-width="2" fill="none"></path></g></g><mask></mask><g stroke-linecap="round"><g transform="translate(212 461) rotate(0 0 20)"><path d="M0 0 C0 6.67, 0 33.33, 0 40 M0 0 C0 6.67, 0 33.33, 0 40" stroke="#adb5bd" stroke-width="2" fill="none"></path></g><g transform="translate(212 461) rotate(0 0 20)"><path d="M-6.84 21.21 C-4.88 26.58, -2.93 31.95, 0 40 M-6.84 21.21 C-4.31 28.16, -1.78 35.11, 0 40" stroke="#adb5bd" stroke-width="2" fill="none"></path></g><g transform="translate(212 461) rotate(0 0 20)"><path d="M6.84 21.21 C4.88 26.58, 2.93 31.95, 0 40 M6.84 21.21 C4.31 28.16, 1.78 35.11, 0 40" stroke="#adb5bd" stroke-width="2" fill="none"></path></g></g><mask></mask><g stroke-linecap="round"><g transform="translate(212 549) rotate(0 0 17)"><path d="M0 0 C0 5.67, 0 28.33, 0 34 M0 0 C0 5.67, 0 28.33, 0 34" stroke="#adb5bd" stroke-width="2" fill="none"></path></g><g transform="translate(212 549) rotate(0 0 17)"><path d="M-5.81 18.03 C-4.43 21.83, -3.05 25.63, 0 34 M-5.81 18.03 C-3.91 23.26, -2 28.5, 0 34" stroke="#adb5bd" stroke-width="2" fill="none"></path></g><g transform="translate(212 549) rotate(0 0 17)"><path d="M5.81 18.03 C4.43 21.83, 3.05 25.63, 0 34 M5.81 18.03 C3.91 23.26, 2 28.5, 0 34" stroke="#adb5bd" stroke-width="2" fill="none"></path></g></g><mask></mask><g stroke-linecap="round"><g transform="translate(212 631) rotate(0 0 22)"><path d="M0 0 C0 7.33, 0 36.67, 0 44 M0 0 C0 7.33, 0 36.67, 0 44" stroke="#adb5bd" stroke-width="2" fill="none"></path></g><g transform="translate(212 631) rotate(0 0 22)"><path d="M-7.52 23.33 C-4.9 30.55, -2.27 37.77, 0 44 M-7.52 23.33 C-4.57 31.43, -1.63 39.53, 0 44" stroke="#adb5bd" stroke-width="2" fill="none"></path></g><g transform="translate(212 631) rotate(0 0 22)"><path d="M7.52 23.33 C4.9 30.55, 2.27 37.77, 0 44 M7.52 23.33 C4.57 31.43, 1.63 39.53, 0 44" stroke="#adb5bd" stroke-width="2" fill="none"></path></g></g><mask></mask><g stroke-linecap="round"><g transform="translate(212 723) rotate(0 0 18.5)"><path d="M0 0 C0 6.17, 0 30.83, 0 37 M0 0 C0 6.17, 0 30.83, 0 37" stroke="#adb5bd" stroke-width="2" fill="none"></path></g><g transform="translate(212 723) rotate(0 0 18.5)"><path d="M-6.33 19.62 C-4.78 23.88, -3.22 28.14, 0 37 M-6.33 19.62 C-4.35 25.06, -2.36 30.51, 0 37" stroke="#adb5bd" stroke-width="2" fill="none"></path></g><g transform="translate(212 723) rotate(0 0 18.5)"><path d="M6.33 19.62 C4.78 23.88, 3.22 28.14, 0 37 M6.33 19.62 C4.35 25.06, 2.36 30.51, 0 37" stroke="#adb5bd" stroke-width="2" fill="none"></path></g></g><mask></mask><g stroke-linecap="round"><g transform="translate(317 607) rotate(0 25 -41)"><path d="M0 0 C8.33 0, 41.67 13.67, 50 0 C58.33 -13.67, 58.33 -68.33, 50 -82 C41.67 -95.67, 8.33 -82, 0 -82 M0 0 C8.33 0, 41.67 13.67, 50 0 C58.33 -13.67, 58.33 -68.33, 50 -82 C41.67 -95.67, 8.33 -82, 0 -82" stroke="#e8590c" stroke-width="2" fill="none"></path></g><g transform="translate(317 607) rotate(0 25 -41)"><path d="M21.36 -95 C13.36 -90.13, 5.36 -85.26, 0 -82 M21.36 -95 C15.44 -91.39, 9.52 -87.79, 0 -82" stroke="#e8590c" stroke-width="2" fill="none"></path></g><g transform="translate(317 607) rotate(0 25 -41)"><path d="M24.71 -78.23 C15.46 -79.64, 6.2 -81.05, 0 -82 M24.71 -78.23 C17.86 -79.27, 11.01 -80.32, 0 -82" stroke="#e8590c" stroke-width="2" fill="none"></path></g></g><mask></mask><g transform="translate(375 556) rotate(0 18 10)"><text x="18" y="11.63525390625" font-family="Helvetica, Segoe UI Emoji" font-size="13px" fill="#e8590c" text-anchor="middle" style="white-space: pre;" direction="ltr" dominant-baseline="alphabetic">반복</text></g><g stroke-linecap="round"><g transform="translate(107 349) rotate(0 -27.5 -89)"><path d="M0 0 C-9.17 0, -45.83 29.67, -55 0 C-64.17 -29.67, -64.17 -148.33, -55 -178 C-45.83 -207.67, -9.17 -178, 0 -178" stroke="#868e96" stroke-width="1.5" fill="none" stroke-dasharray="8 9"></path></g><g transform="translate(107 349) rotate(0 -27.5 -89)"><path d="M-24.99 -178.68 C-16.59 -178.45, -8.18 -178.22, 0 -178" stroke="#868e96" stroke-width="1.5" fill="none"></path></g><g transform="translate(107 349) rotate(0 -27.5 -89)"><path d="M-18.71 -194.59 C-12.42 -189.01, -6.13 -183.43, 0 -178" stroke="#868e96" stroke-width="1.5" fill="none"></path></g></g><mask></mask><g transform="translate(10 250) rotate(0 18 10)"><text x="18" y="10.740234375" font-family="Helvetica, Segoe UI Emoji" font-size="12px" fill="#868e96" text-anchor="middle" style="white-space: pre;" direction="ltr" dominant-baseline="alphabetic">피드백</text></g><g stroke-linecap="round"><g transform="translate(107 699) rotate(0 -27.5 -87)"><path d="M0 0 C-9.17 0, -45.83 29, -55 0 C-64.17 -29, -64.17 -145, -55 -174 C-45.83 -203, -9.17 -174, 0 -174" stroke="#868e96" stroke-width="1.5" fill="none" stroke-dasharray="8 9"></path></g><g transform="translate(107 699) rotate(0 -27.5 -87)"><path d="M-25 -174.49 C-18.1 -174.35, -11.21 -174.22, 0 -174" stroke="#868e96" stroke-width="1.5" fill="none"></path></g><g transform="translate(107 699) rotate(0 -27.5 -87)"><path d="M-18.83 -190.44 C-13.64 -185.91, -8.44 -181.37, 0 -174" stroke="#868e96" stroke-width="1.5" fill="none"></path></g></g><mask></mask><g transform="translate(10 602) rotate(0 18 10)"><text x="18" y="10.740234375" font-family="Helvetica, Segoe UI Emoji" font-size="12px" fill="#868e96" text-anchor="middle" style="white-space: pre;" direction="ltr" dominant-baseline="alphabetic">피드백</text></g><g stroke-linecap="round" transform="translate(392 123) rotate(0 77.5 47.5)"><path d="M23.75 0 C50.96 0, 78.16 0, 131.25 0 C147.08 0, 155 7.92, 155 23.75 C155 37.06, 155 50.37, 155 71.25 C155 87.08, 147.08 95, 131.25 95 C97.66 95, 64.07 95, 23.75 95 C7.92 95, 0 87.08, 0 71.25 C0 55.36, 0 39.47, 0 23.75 C0 7.92, 7.92 0, 23.75 0" stroke="none" stroke-width="0" fill="#e5dbff"></path><path d="M23.75 0 C45.47 0, 67.18 0, 131.25 0 M131.25 0 C147.08 0, 155 7.92, 155 23.75 M155 23.75 C155 38.68, 155 53.6, 155 71.25 M155 71.25 C155 87.08, 147.08 95, 131.25 95 M131.25 95 C92.2 95, 53.14 95, 23.75 95 M23.75 95 C7.92 95, 0 87.08, 0 71.25 M0 71.25 C0 57.23, 0 43.21, 0 23.75 M0 23.75 C0 7.92, 7.92 0, 23.75 0" stroke="#9775fa" stroke-width="1.5" fill="none" stroke-dasharray="8 9"></path></g><g transform="translate(430.3472878783941 138) rotate(0 39.15271212160587 32.5)"><text x="39.15271212160587" y="11.63525390625" font-family="Helvetica, Segoe UI Emoji" font-size="13px" fill="#7048e8" text-anchor="middle" style="white-space: pre;" direction="ltr" dominant-baseline="alphabetic">서브 에이전트</text><text x="39.15271212160587" y="27.88525390625" font-family="Helvetica, Segoe UI Emoji" font-size="13px" fill="#7048e8" text-anchor="middle" style="white-space: pre;" direction="ltr" dominant-baseline="alphabetic"></text><text x="39.15271212160587" y="44.13525390625" font-family="Helvetica, Segoe UI Emoji" font-size="13px" fill="#7048e8" text-anchor="middle" style="white-space: pre;" direction="ltr" dominant-baseline="alphabetic">탐색 · 리서치</text><text x="39.15271212160587" y="60.38525390625" font-family="Helvetica, Segoe UI Emoji" font-size="13px" fill="#7048e8" text-anchor="middle" style="white-space: pre;" direction="ltr" dominant-baseline="alphabetic">구조분석 · 리뷰</text></g><g stroke-linecap="round"><g transform="translate(317 171) rotate(0 37.5 -0.5)"><path d="M0 0 C12.5 -0.17, 62.5 -0.83, 75 -1" stroke="#9775fa" stroke-width="1.5" fill="none" stroke-dasharray="8 9"></path></g></g><mask></mask><g transform="translate(332 261) rotate(0 40 9)"><text x="40" y="10.740234375" font-family="Helvetica, Segoe UI Emoji" font-size="12px" fill="#1971c2" text-anchor="middle" style="white-space: pre;" direction="ltr" dominant-baseline="alphabetic">Plan Mode</text></g><g stroke-linecap="round"><g transform="translate(327 138) rotate(0 4 0)"><path d="M0 0 C1.33 0, 6.67 0, 8 0 M0 0 C1.33 0, 6.67 0, 8 0" stroke="#1971c2" stroke-width="1" fill="none"></path></g></g><mask></mask><g stroke-linecap="round"><g transform="translate(327 294) rotate(0 4 0)"><path d="M0 0 C1.33 0, 6.67 0, 8 0 M0 0 C1.33 0, 6.67 0, 8 0" stroke="#1971c2" stroke-width="1" fill="none"></path></g></g><mask></mask><g stroke-linecap="round"><g transform="translate(335 138) rotate(0 0 78)"><path d="M0 0 C0 26, 0 130, 0 156 M0 0 C0 26, 0 130, 0 156" stroke="#1971c2" stroke-width="1" fill="none"></path></g></g><mask></mask><g transform="translate(332 572) rotate(0 40 9)"><text x="40" y="10.740234375" font-family="Helvetica, Segoe UI Emoji" font-size="12px" fill="#2f9e44" text-anchor="middle" style="white-space: pre;" direction="ltr" dominant-baseline="alphabetic">자체 순환</text></g><g stroke-linecap="round"><g transform="translate(327 408) rotate(0 4 0)"><path d="M0 0 C1.33 0, 6.67 0, 8 0 M0 0 C1.33 0, 6.67 0, 8 0" stroke="#2f9e44" stroke-width="1" fill="none"></path></g></g><mask></mask><g stroke-linecap="round"><g transform="translate(327 636) rotate(0 4 0)"><path d="M0 0 C1.33 0, 6.67 0, 8 0 M0 0 C1.33 0, 6.67 0, 8 0" stroke="#2f9e44" stroke-width="1" fill="none"></path></g></g><mask></mask><g stroke-linecap="round"><g transform="translate(335 408) rotate(0 0 114)"><path d="M0 0 C0 38, 0 190, 0 228 M0 0 C0 38, 0 190, 0 228" stroke="#2f9e44" stroke-width="1" fill="none"></path></g></g><mask></mask><g transform="translate(72 71) rotate(0 14 8)"><text x="14" y="10.740234375" font-family="Helvetica, Segoe UI Emoji" font-size="12px" fill="#e8590c" text-anchor="middle" style="white-space: pre;" direction="ltr" dominant-baseline="alphabetic">나</text></g><g transform="translate(72 163) rotate(0 14 8)"><text x="14" y="10.740234375" font-family="Helvetica, Segoe UI Emoji" font-size="12px" fill="#1971c2" text-anchor="middle" style="white-space: pre;" direction="ltr" dominant-baseline="alphabetic">AI</text></g><g transform="translate(72 257) rotate(0 14 8)"><text x="14" y="10.740234375" font-family="Helvetica, Segoe UI Emoji" font-size="12px" fill="#1971c2" text-anchor="middle" style="white-space: pre;" direction="ltr" dominant-baseline="alphabetic">AI</text></g><g transform="translate(72 341) rotate(0 14 8)"><text x="14" y="10.740234375" font-family="Helvetica, Segoe UI Emoji" font-size="12px" fill="#e8590c" text-anchor="middle" style="white-space: pre;" direction="ltr" dominant-baseline="alphabetic">나</text></g><g transform="translate(72 429) rotate(0 14 8)"><text x="14" y="10.740234375" font-family="Helvetica, Segoe UI Emoji" font-size="12px" fill="#1971c2" text-anchor="middle" style="white-space: pre;" direction="ltr" dominant-baseline="alphabetic">AI</text></g><g transform="translate(72 517) rotate(0 14 8)"><text x="14" y="10.740234375" font-family="Helvetica, Segoe UI Emoji" font-size="12px" fill="#1971c2" text-anchor="middle" style="white-space: pre;" direction="ltr" dominant-baseline="alphabetic">AI</text></g><g transform="translate(72 599) rotate(0 14 8)"><text x="14" y="10.740234375" font-family="Helvetica, Segoe UI Emoji" font-size="12px" fill="#1971c2" text-anchor="middle" style="white-space: pre;" direction="ltr" dominant-baseline="alphabetic">AI</text></g><g transform="translate(72 691) rotate(0 14 8)"><text x="14" y="10.740234375" font-family="Helvetica, Segoe UI Emoji" font-size="12px" fill="#e8590c" text-anchor="middle" style="white-space: pre;" direction="ltr" dominant-baseline="alphabetic">나</text></g><g transform="translate(92 10) rotate(0 120 16)"><text x="120" y="17.900390625" font-family="Helvetica, Segoe UI Emoji" font-size="20px" fill="#1e1e1e" text-anchor="middle" style="white-space: pre;" direction="ltr" dominant-baseline="alphabetic">멀티 에이전트 개발 워크플로우</text></g></svg>